%TF.GenerationSoftware,KiCad,Pcbnew,8.0.7*%
%TF.CreationDate,2025-01-15T15:04:11+01:00*%
%TF.ProjectId,PCB_designing,5043425f-6465-4736-9967-6e696e672e6b,rev?*%
%TF.SameCoordinates,Original*%
%TF.FileFunction,Copper,L2,Bot*%
%TF.FilePolarity,Positive*%
%FSLAX46Y46*%
G04 Gerber Fmt 4.6, Leading zero omitted, Abs format (unit mm)*
G04 Created by KiCad (PCBNEW 8.0.7) date 2025-01-15 15:04:11*
%MOMM*%
%LPD*%
G01*
G04 APERTURE LIST*
%TA.AperFunction,ComponentPad*%
%ADD10R,1.900000X2.500000*%
%TD*%
%TA.AperFunction,ComponentPad*%
%ADD11O,1.900000X2.500000*%
%TD*%
%TA.AperFunction,ComponentPad*%
%ADD12R,2.500000X1.900000*%
%TD*%
%TA.AperFunction,ComponentPad*%
%ADD13O,2.500000X1.900000*%
%TD*%
%TA.AperFunction,ViaPad*%
%ADD14C,1.600000*%
%TD*%
%TA.AperFunction,Conductor*%
%ADD15C,0.500000*%
%TD*%
G04 APERTURE END LIST*
D10*
%TO.P,J3,1,Pin_1*%
%TO.N,unconnected-(J3-Pin_1-Pad1)*%
X165480000Y-78486000D03*
D11*
%TO.P,J3,2,Pin_2*%
%TO.N,unconnected-(J3-Pin_2-Pad2)*%
X162940000Y-78486000D03*
%TO.P,J3,3,Pin_3*%
%TO.N,unconnected-(J3-Pin_3-Pad3)*%
X160400000Y-78486000D03*
%TO.P,J3,4,Pin_4*%
%TO.N,unconnected-(J3-Pin_4-Pad4)*%
X157860000Y-78486000D03*
%TO.P,J3,5,Pin_5*%
%TO.N,unconnected-(J3-Pin_5-Pad5)*%
X155320000Y-78486000D03*
%TO.P,J3,6,Pin_6*%
%TO.N,unconnected-(J3-Pin_6-Pad6)*%
X152780000Y-78486000D03*
%TO.P,J3,7,Pin_7*%
%TO.N,unconnected-(J3-Pin_7-Pad7)*%
X150240000Y-78486000D03*
%TO.P,J3,8,Pin_8*%
%TO.N,unconnected-(J3-Pin_8-Pad8)*%
X147700000Y-78486000D03*
%TO.P,J3,9,Pin_9*%
%TO.N,unconnected-(J3-Pin_9-Pad9)*%
X145160000Y-78486000D03*
%TO.P,J3,10,Pin_10*%
%TO.N,unconnected-(J3-Pin_10-Pad10)*%
X142620000Y-78486000D03*
%TO.P,J3,11,Pin_11*%
%TO.N,unconnected-(J3-Pin_11-Pad11)*%
X140080000Y-78486000D03*
%TO.P,J3,12,Pin_12*%
%TO.N,unconnected-(J3-Pin_12-Pad12)*%
X137540000Y-78486000D03*
%TO.P,J3,13,Pin_13*%
%TO.N,unconnected-(J3-Pin_13-Pad13)*%
X135000000Y-78486000D03*
%TO.P,J3,14,Pin_14*%
%TO.N,unconnected-(J3-Pin_14-Pad14)*%
X132460000Y-78486000D03*
%TD*%
D12*
%TO.P,J11,1,Pin_1*%
%TO.N,unconnected-(J11-Pin_1-Pad1)*%
X78740000Y-91440000D03*
D13*
%TO.P,J11,2,Pin_2*%
%TO.N,SDA1*%
X78740000Y-88900000D03*
%TO.P,J11,3,Pin_3*%
%TO.N,SCL1*%
X78740000Y-86360000D03*
%TO.P,J11,4,Pin_4*%
%TO.N,GND*%
X78740000Y-83820000D03*
%TO.P,J11,5,Pin_5*%
%TO.N,+5V*%
X78740000Y-81280000D03*
%TD*%
D10*
%TO.P,J7,1,Pin_1*%
%TO.N,Net-(J5-Pin_2)*%
X177800000Y-124460000D03*
D11*
%TO.P,J7,2,Pin_2*%
%TO.N,unconnected-(J7-Pin_2-Pad2)*%
X175260000Y-124460000D03*
%TO.P,J7,3,Pin_3*%
%TO.N,unconnected-(J7-Pin_3-Pad3)*%
X172720000Y-124460000D03*
%TO.P,J7,4,Pin_4*%
%TO.N,unconnected-(J7-Pin_4-Pad4)*%
X170180000Y-124460000D03*
%TO.P,J7,5,Pin_5*%
%TO.N,Net-(J5-Pin_1)*%
X167640000Y-124460000D03*
%TD*%
D12*
%TO.P,J1,1,Pin_1*%
%TO.N,+5V*%
X101600000Y-76200000D03*
D13*
%TO.P,J1,2,Pin_2*%
%TO.N,GND*%
X101600000Y-78740000D03*
%TO.P,J1,3,Pin_3*%
%TO.N,SDA*%
X101600000Y-81280000D03*
%TO.P,J1,4,Pin_4*%
%TO.N,SCL*%
X101600000Y-83820000D03*
%TO.P,J1,5,Pin_5*%
%TO.N,unconnected-(J1-Pin_5-Pad5)*%
X101600000Y-86360000D03*
%TO.P,J1,6,Pin_6*%
%TO.N,unconnected-(J1-Pin_6-Pad6)*%
X101600000Y-88900000D03*
%TO.P,J1,7,Pin_7*%
%TO.N,unconnected-(J1-Pin_7-Pad7)*%
X101600000Y-91440000D03*
%TO.P,J1,8,Pin_8*%
%TO.N,unconnected-(J1-Pin_8-Pad8)*%
X101600000Y-93980000D03*
%TO.P,J1,9,Pin_9*%
%TO.N,SDA0*%
X101600000Y-96520000D03*
%TO.P,J1,10,Pin_10*%
%TO.N,SCL0*%
X101600000Y-99060000D03*
%TO.P,J1,11,Pin_11*%
%TO.N,SDA1*%
X101600000Y-101600000D03*
%TO.P,J1,12,Pin_12*%
%TO.N,SCL1*%
X101600000Y-104140000D03*
%TD*%
D10*
%TO.P,J21,1,Pin_1*%
%TO.N,Net-(J18-Pin_5)*%
X144780000Y-63500000D03*
D11*
%TO.P,J21,2,Pin_2*%
%TO.N,Net-(J18-Pin_1)*%
X147280000Y-63500000D03*
%TD*%
D10*
%TO.P,J16,1,Pin_1*%
%TO.N,unconnected-(J16-Pin_1-Pad1)*%
X137160000Y-111760000D03*
D11*
%TO.P,J16,2,Pin_2*%
%TO.N,SDA4*%
X139700000Y-111760000D03*
%TO.P,J16,3,Pin_3*%
%TO.N,SCL4*%
X142240000Y-111760000D03*
%TO.P,J16,4,Pin_4*%
%TO.N,GND*%
X144780000Y-111760000D03*
%TO.P,J16,5,Pin_5*%
%TO.N,+5V*%
X147320000Y-111760000D03*
%TD*%
D10*
%TO.P,J22,1,Pin_1*%
%TO.N,Net-(J19-Pin_5)*%
X157520000Y-63500000D03*
D11*
%TO.P,J22,2,Pin_2*%
%TO.N,Net-(J19-Pin_1)*%
X160020000Y-63500000D03*
%TD*%
D10*
%TO.P,J13,1,Pin_1*%
%TO.N,Net-(J12-Pin_5)*%
X119380000Y-63500000D03*
D11*
%TO.P,J13,2,Pin_2*%
%TO.N,Net-(J12-Pin_1)*%
X121880000Y-63500000D03*
%TD*%
D10*
%TO.P,J10,1,Pin_1*%
%TO.N,Net-(J10-Pin_1)*%
X106720000Y-63500000D03*
D11*
%TO.P,J10,2,Pin_2*%
%TO.N,Net-(J10-Pin_2)*%
X109220000Y-63500000D03*
%TD*%
D10*
%TO.P,J20,1,Pin_1*%
%TO.N,Net-(J17-Pin_5)*%
X132080000Y-63500000D03*
D11*
%TO.P,J20,2,Pin_2*%
%TO.N,Net-(J17-Pin_1)*%
X134580000Y-63500000D03*
%TD*%
D12*
%TO.P,J2,1,Pin_1*%
%TO.N,unconnected-(J2-Pin_1-Pad1)*%
X116840000Y-76200000D03*
D13*
%TO.P,J2,2,Pin_2*%
%TO.N,unconnected-(J2-Pin_2-Pad2)*%
X116840000Y-78740000D03*
%TO.P,J2,3,Pin_3*%
%TO.N,unconnected-(J2-Pin_3-Pad3)*%
X116840000Y-81280000D03*
%TO.P,J2,4,Pin_4*%
%TO.N,unconnected-(J2-Pin_4-Pad4)*%
X116840000Y-83820000D03*
%TO.P,J2,5,Pin_5*%
%TO.N,SCL5*%
X116840000Y-86360000D03*
%TO.P,J2,6,Pin_6*%
%TO.N,SDA5*%
X116840000Y-88900000D03*
%TO.P,J2,7,Pin_7*%
%TO.N,SCL4*%
X116840000Y-91440000D03*
%TO.P,J2,8,Pin_8*%
%TO.N,SDA4*%
X116840000Y-93980000D03*
%TO.P,J2,9,Pin_9*%
%TO.N,SCL3*%
X116840000Y-96520000D03*
%TO.P,J2,10,Pin_10*%
%TO.N,SDA3*%
X116840000Y-99060000D03*
%TO.P,J2,11,Pin_11*%
%TO.N,SCL2*%
X116840000Y-101600000D03*
%TO.P,J2,12,Pin_12*%
%TO.N,SDA2*%
X116840000Y-104140000D03*
%TD*%
D10*
%TO.P,J15,1,Pin_1*%
%TO.N,unconnected-(J15-Pin_1-Pad1)*%
X106680000Y-111760000D03*
D11*
%TO.P,J15,2,Pin_2*%
%TO.N,SDA2*%
X109220000Y-111760000D03*
%TO.P,J15,3,Pin_3*%
%TO.N,SCL2*%
X111760000Y-111760000D03*
%TO.P,J15,4,Pin_4*%
%TO.N,GND*%
X114300000Y-111760000D03*
%TO.P,J15,5,Pin_5*%
%TO.N,+5V*%
X116840000Y-111760000D03*
%TD*%
D10*
%TO.P,J4,1,Pin_1*%
%TO.N,+5V*%
X165480000Y-100466000D03*
D11*
%TO.P,J4,2,Pin_2*%
%TO.N,unconnected-(J4-Pin_2-Pad2)*%
X162940000Y-100466000D03*
%TO.P,J4,3,Pin_3*%
%TO.N,unconnected-(J4-Pin_3-Pad3)*%
X160400000Y-100466000D03*
%TO.P,J4,4,Pin_4*%
%TO.N,GND*%
X157860000Y-100466000D03*
%TO.P,J4,5,Pin_5*%
%TO.N,unconnected-(J4-Pin_5-Pad5)*%
X155320000Y-100466000D03*
%TO.P,J4,6,Pin_6*%
%TO.N,unconnected-(J4-Pin_6-Pad6)*%
X152780000Y-100466000D03*
%TO.P,J4,7,Pin_7*%
%TO.N,unconnected-(J4-Pin_7-Pad7)*%
X150240000Y-100466000D03*
%TO.P,J4,8,Pin_8*%
%TO.N,SCL*%
X147700000Y-100466000D03*
%TO.P,J4,9,Pin_9*%
%TO.N,SDA*%
X145160000Y-100466000D03*
%TO.P,J4,10,Pin_10*%
%TO.N,unconnected-(J4-Pin_10-Pad10)*%
X142620000Y-100466000D03*
%TO.P,J4,11,Pin_11*%
%TO.N,unconnected-(J4-Pin_11-Pad11)*%
X140080000Y-100466000D03*
%TO.P,J4,12,Pin_12*%
%TO.N,unconnected-(J4-Pin_12-Pad12)*%
X137540000Y-100466000D03*
%TO.P,J4,13,Pin_13*%
%TO.N,unconnected-(J4-Pin_13-Pad13)*%
X135000000Y-100466000D03*
%TO.P,J4,14,Pin_14*%
%TO.N,unconnected-(J4-Pin_14-Pad14)*%
X132460000Y-100466000D03*
%TD*%
D10*
%TO.P,J6,1,Pin_1*%
%TO.N,unconnected-(J6-Pin_1-Pad1)*%
X167640000Y-111760000D03*
D11*
%TO.P,J6,2,Pin_2*%
%TO.N,SDA5*%
X170180000Y-111760000D03*
%TO.P,J6,3,Pin_3*%
%TO.N,SCL5*%
X172720000Y-111760000D03*
%TO.P,J6,4,Pin_4*%
%TO.N,GND*%
X175260000Y-111760000D03*
%TO.P,J6,5,Pin_5*%
%TO.N,+5V*%
X177800000Y-111760000D03*
%TD*%
D12*
%TO.P,J12,1,Pin_1*%
%TO.N,Net-(J12-Pin_1)*%
X91465000Y-91440000D03*
D13*
%TO.P,J12,2,Pin_2*%
%TO.N,unconnected-(J12-Pin_2-Pad2)*%
X91465000Y-88900000D03*
%TO.P,J12,3,Pin_3*%
%TO.N,unconnected-(J12-Pin_3-Pad3)*%
X91465000Y-86360000D03*
%TO.P,J12,4,Pin_4*%
%TO.N,unconnected-(J12-Pin_4-Pad4)*%
X91465000Y-83820000D03*
%TO.P,J12,5,Pin_5*%
%TO.N,Net-(J12-Pin_5)*%
X91465000Y-81280000D03*
%TD*%
D10*
%TO.P,J19,1,Pin_1*%
%TO.N,Net-(J19-Pin_1)*%
X147320000Y-124460000D03*
D11*
%TO.P,J19,2,Pin_2*%
%TO.N,unconnected-(J19-Pin_2-Pad2)*%
X144780000Y-124460000D03*
%TO.P,J19,3,Pin_3*%
%TO.N,unconnected-(J19-Pin_3-Pad3)*%
X142240000Y-124460000D03*
%TO.P,J19,4,Pin_4*%
%TO.N,unconnected-(J19-Pin_4-Pad4)*%
X139700000Y-124460000D03*
%TO.P,J19,5,Pin_5*%
%TO.N,Net-(J19-Pin_5)*%
X137160000Y-124460000D03*
%TD*%
D12*
%TO.P,J17,1,Pin_1*%
%TO.N,Net-(J17-Pin_1)*%
X91440000Y-119380000D03*
D13*
%TO.P,J17,2,Pin_2*%
%TO.N,unconnected-(J17-Pin_2-Pad2)*%
X91440000Y-116840000D03*
%TO.P,J17,3,Pin_3*%
%TO.N,unconnected-(J17-Pin_3-Pad3)*%
X91440000Y-114300000D03*
%TO.P,J17,4,Pin_4*%
%TO.N,unconnected-(J17-Pin_4-Pad4)*%
X91440000Y-111760000D03*
%TO.P,J17,5,Pin_5*%
%TO.N,Net-(J17-Pin_5)*%
X91440000Y-109220000D03*
%TD*%
D10*
%TO.P,J5,1,Pin_1*%
%TO.N,Net-(J5-Pin_1)*%
X170220000Y-63500000D03*
D11*
%TO.P,J5,2,Pin_2*%
%TO.N,Net-(J5-Pin_2)*%
X172720000Y-63500000D03*
%TD*%
D10*
%TO.P,J18,1,Pin_1*%
%TO.N,Net-(J18-Pin_1)*%
X116840000Y-124460000D03*
D11*
%TO.P,J18,2,Pin_2*%
%TO.N,unconnected-(J18-Pin_2-Pad2)*%
X114300000Y-124460000D03*
%TO.P,J18,3,Pin_3*%
%TO.N,unconnected-(J18-Pin_3-Pad3)*%
X111760000Y-124460000D03*
%TO.P,J18,4,Pin_4*%
%TO.N,unconnected-(J18-Pin_4-Pad4)*%
X109220000Y-124460000D03*
%TO.P,J18,5,Pin_5*%
%TO.N,Net-(J18-Pin_5)*%
X106680000Y-124460000D03*
%TD*%
D10*
%TO.P,J9,1,Pin_1*%
%TO.N,Net-(J10-Pin_2)*%
X93950000Y-68605000D03*
D11*
%TO.P,J9,2,Pin_2*%
%TO.N,unconnected-(J9-Pin_2-Pad2)*%
X91410000Y-68605000D03*
%TO.P,J9,3,Pin_3*%
%TO.N,unconnected-(J9-Pin_3-Pad3)*%
X88870000Y-68605000D03*
%TO.P,J9,4,Pin_4*%
%TO.N,unconnected-(J9-Pin_4-Pad4)*%
X86330000Y-68605000D03*
%TO.P,J9,5,Pin_5*%
%TO.N,Net-(J10-Pin_1)*%
X83790000Y-68605000D03*
%TD*%
D12*
%TO.P,J14,1,Pin_1*%
%TO.N,unconnected-(J14-Pin_1-Pad1)*%
X78740000Y-119380000D03*
D13*
%TO.P,J14,2,Pin_2*%
%TO.N,SDA3*%
X78740000Y-116840000D03*
%TO.P,J14,3,Pin_3*%
%TO.N,SCL3*%
X78740000Y-114300000D03*
%TO.P,J14,4,Pin_4*%
%TO.N,GND*%
X78740000Y-111760000D03*
%TO.P,J14,5,Pin_5*%
%TO.N,+5V*%
X78740000Y-109220000D03*
%TD*%
D10*
%TO.P,J8,1,Pin_1*%
%TO.N,unconnected-(J8-Pin_1-Pad1)*%
X83820000Y-55880000D03*
D11*
%TO.P,J8,2,Pin_2*%
%TO.N,SDA0*%
X86360000Y-55880000D03*
%TO.P,J8,3,Pin_3*%
%TO.N,SCL0*%
X88900000Y-55880000D03*
%TO.P,J8,4,Pin_4*%
%TO.N,GND*%
X91440000Y-55880000D03*
%TO.P,J8,5,Pin_5*%
%TO.N,+5V*%
X93980000Y-55880000D03*
%TD*%
D14*
%TO.N,GND*%
X112395000Y-79375000D03*
X112395000Y-67945000D03*
X174625000Y-95250000D03*
X174625000Y-104775000D03*
X121285000Y-116205000D03*
X121285000Y-104140000D03*
%TD*%
D15*
%TO.N,+5V*%
X153670000Y-111760000D02*
X147320000Y-111760000D01*
X175895000Y-115570000D02*
X157480000Y-115570000D01*
X177800000Y-113665000D02*
X175895000Y-115570000D01*
X157480000Y-115570000D02*
X153670000Y-111760000D01*
X177800000Y-111760000D02*
X177800000Y-113665000D01*
X165480000Y-101855000D02*
X165480000Y-100466000D01*
X164465000Y-102870000D02*
X165480000Y-101855000D01*
X130810000Y-102870000D02*
X164465000Y-102870000D01*
X129540000Y-101600000D02*
X130810000Y-102870000D01*
X129540000Y-86995000D02*
X129540000Y-101600000D01*
X123190000Y-80645000D02*
X129540000Y-86995000D01*
X120015000Y-73660000D02*
X123190000Y-76835000D01*
X110490000Y-73660000D02*
X120015000Y-73660000D01*
X123190000Y-76835000D02*
X123190000Y-80645000D01*
X107950000Y-76200000D02*
X110490000Y-73660000D01*
X101600000Y-76200000D02*
X107950000Y-76200000D01*
%TO.N,SCL5*%
X128905000Y-104140000D02*
X170180000Y-104140000D01*
X127635000Y-102870000D02*
X128905000Y-104140000D01*
X172720000Y-106680000D02*
X172720000Y-111760000D01*
X127635000Y-88265000D02*
X127635000Y-102870000D01*
X170180000Y-104140000D02*
X172720000Y-106680000D01*
X125730000Y-86360000D02*
X127635000Y-88265000D01*
X116840000Y-86360000D02*
X125730000Y-86360000D01*
%TO.N,SDA5*%
X124460000Y-88900000D02*
X116840000Y-88900000D01*
X127635000Y-105410000D02*
X126365000Y-104140000D01*
X126365000Y-104140000D02*
X126365000Y-90805000D01*
X126365000Y-90805000D02*
X124460000Y-88900000D01*
X168910000Y-105410000D02*
X127635000Y-105410000D01*
X170180000Y-111760000D02*
X170180000Y-106680000D01*
X170180000Y-106680000D02*
X168910000Y-105410000D01*
%TO.N,SDA4*%
X123825000Y-95885000D02*
X121920000Y-93980000D01*
X125730000Y-107950000D02*
X123825000Y-106045000D01*
X121920000Y-93980000D02*
X116840000Y-93980000D01*
X138430000Y-107950000D02*
X125730000Y-107950000D01*
X139700000Y-109220000D02*
X138430000Y-107950000D01*
X139700000Y-111760000D02*
X139700000Y-109220000D01*
X123825000Y-106045000D02*
X123825000Y-95885000D01*
%TO.N,SCL4*%
X142240000Y-109220000D02*
X142240000Y-111760000D01*
X139700000Y-106680000D02*
X142240000Y-109220000D01*
X125095000Y-93345000D02*
X125095000Y-104775000D01*
X123190000Y-91440000D02*
X125095000Y-93345000D01*
X125095000Y-104775000D02*
X127000000Y-106680000D01*
X116840000Y-91440000D02*
X123190000Y-91440000D01*
X127000000Y-106680000D02*
X139700000Y-106680000D01*
%TO.N,SDA*%
X145160000Y-88010000D02*
X145160000Y-100466000D01*
X142240000Y-85090000D02*
X145160000Y-88010000D01*
X130810000Y-85090000D02*
X142240000Y-85090000D01*
X128270000Y-77470000D02*
X128270000Y-82550000D01*
X122555000Y-71755000D02*
X128270000Y-77470000D01*
X128270000Y-82550000D02*
X130810000Y-85090000D01*
X99060000Y-80645000D02*
X99060000Y-74930000D01*
X99060000Y-74930000D02*
X102235000Y-71755000D01*
X99695000Y-81280000D02*
X99060000Y-80645000D01*
X102235000Y-71755000D02*
X122555000Y-71755000D01*
X101600000Y-81280000D02*
X99695000Y-81280000D01*
%TO.N,SCL*%
X147700000Y-88010000D02*
X147700000Y-100466000D01*
X143510000Y-83820000D02*
X147700000Y-88010000D01*
X129540000Y-81280000D02*
X132080000Y-83820000D01*
X129540000Y-76200000D02*
X129540000Y-81280000D01*
X123825000Y-70485000D02*
X129540000Y-76200000D01*
X100965000Y-70485000D02*
X123825000Y-70485000D01*
X97790000Y-73660000D02*
X100965000Y-70485000D01*
X97790000Y-82550000D02*
X97790000Y-73660000D01*
X132080000Y-83820000D02*
X143510000Y-83820000D01*
X101600000Y-83820000D02*
X99060000Y-83820000D01*
X99060000Y-83820000D02*
X97790000Y-82550000D01*
%TO.N,Net-(J17-Pin_5)*%
X89535000Y-109220000D02*
X91440000Y-109220000D01*
X88900000Y-109855000D02*
X89535000Y-109220000D01*
X88900000Y-124460000D02*
X88900000Y-109855000D01*
X87630000Y-125730000D02*
X88900000Y-124460000D01*
X76200000Y-125730000D02*
X87630000Y-125730000D01*
X73025000Y-122555000D02*
X76200000Y-125730000D01*
X76835000Y-48260000D02*
X73025000Y-52070000D01*
X109220000Y-54610000D02*
X102870000Y-48260000D01*
X129540000Y-54610000D02*
X109220000Y-54610000D01*
X73025000Y-52070000D02*
X73025000Y-122555000D01*
X102870000Y-48260000D02*
X76835000Y-48260000D01*
X132080000Y-57150000D02*
X129540000Y-54610000D01*
X132080000Y-63500000D02*
X132080000Y-57150000D01*
%TO.N,+5V*%
X78740000Y-105410000D02*
X78740000Y-109220000D01*
X76835000Y-81280000D02*
X74295000Y-83820000D01*
X78740000Y-81280000D02*
X76835000Y-81280000D01*
X74295000Y-83820000D02*
X74295000Y-100965000D01*
X74295000Y-100965000D02*
X78740000Y-105410000D01*
%TO.N,Net-(J17-Pin_1)*%
X134620000Y-57150000D02*
X134580000Y-57190000D01*
X109855000Y-53340000D02*
X130810000Y-53340000D01*
X103505000Y-46990000D02*
X109855000Y-53340000D01*
X71870000Y-123940000D02*
X71870000Y-51320000D01*
X76200000Y-46990000D02*
X103505000Y-46990000D01*
X134580000Y-57190000D02*
X134580000Y-63500000D01*
X74930000Y-127000000D02*
X71870000Y-123940000D01*
X88900000Y-127000000D02*
X74930000Y-127000000D01*
X91440000Y-124460000D02*
X88900000Y-127000000D01*
X130810000Y-53340000D02*
X134620000Y-57150000D01*
X91440000Y-119380000D02*
X91440000Y-124460000D01*
X71870000Y-51320000D02*
X76200000Y-46990000D01*
%TO.N,Net-(J12-Pin_1)*%
X121880000Y-59730000D02*
X121880000Y-63500000D01*
X121920000Y-59690000D02*
X121880000Y-59730000D01*
X121920000Y-58420000D02*
X121920000Y-59690000D01*
X120650000Y-57150000D02*
X121920000Y-58420000D01*
X102235000Y-49530000D02*
X109855000Y-57150000D01*
X109855000Y-57150000D02*
X120650000Y-57150000D01*
X74930000Y-52070000D02*
X77470000Y-49530000D01*
X74930000Y-72390000D02*
X74930000Y-52070000D01*
X86995000Y-84455000D02*
X74930000Y-72390000D01*
X86995000Y-90805000D02*
X86995000Y-84455000D01*
X87630000Y-91440000D02*
X86995000Y-90805000D01*
X77470000Y-49530000D02*
X102235000Y-49530000D01*
X91465000Y-91440000D02*
X87630000Y-91440000D01*
%TO.N,+5V*%
X93980000Y-53181250D02*
X93980000Y-55880000D01*
X78740000Y-52070000D02*
X92868750Y-52070000D01*
X77470000Y-69850000D02*
X77470000Y-53340000D01*
X84455000Y-76835000D02*
X77470000Y-69850000D01*
X92075000Y-76835000D02*
X84455000Y-76835000D01*
X93980000Y-78740000D02*
X92075000Y-76835000D01*
X93345000Y-93980000D02*
X93980000Y-93345000D01*
X93980000Y-93345000D02*
X93980000Y-78740000D01*
X88265000Y-93980000D02*
X93345000Y-93980000D01*
X84390000Y-90105000D02*
X88265000Y-93980000D01*
X84390000Y-84390000D02*
X84390000Y-90105000D01*
X92868750Y-52070000D02*
X93980000Y-53181250D01*
X78740000Y-81280000D02*
X81280000Y-81280000D01*
X81280000Y-81280000D02*
X84390000Y-84390000D01*
X77470000Y-53340000D02*
X78740000Y-52070000D01*
%TO.N,Net-(J19-Pin_5)*%
X137160000Y-122555000D02*
X137160000Y-124460000D01*
X137795000Y-121920000D02*
X137160000Y-122555000D01*
X149225000Y-121920000D02*
X137795000Y-121920000D01*
X150495000Y-123190000D02*
X149225000Y-121920000D01*
X163512500Y-123190000D02*
X150495000Y-123190000D01*
X167322500Y-119380000D02*
X163512500Y-123190000D01*
X182880000Y-119380000D02*
X167322500Y-119380000D01*
X184150000Y-118110000D02*
X182880000Y-119380000D01*
X184150000Y-81280000D02*
X184150000Y-118110000D01*
X171450000Y-76200000D02*
X175260000Y-80010000D01*
X182880000Y-80010000D02*
X184150000Y-81280000D01*
X158750000Y-67310000D02*
X166370000Y-67310000D01*
X166370000Y-67310000D02*
X171450000Y-72390000D01*
X175260000Y-80010000D02*
X182880000Y-80010000D01*
X157520000Y-66080000D02*
X158750000Y-67310000D01*
X171450000Y-72390000D02*
X171450000Y-76200000D01*
X157520000Y-63500000D02*
X157520000Y-66080000D01*
%TO.N,+5V*%
X177800000Y-111760000D02*
X177800000Y-104140000D01*
X86360000Y-109220000D02*
X88900000Y-106680000D01*
X77152500Y-109220000D02*
X76200000Y-110172500D01*
X114300000Y-119380000D02*
X116840000Y-116840000D01*
X177800000Y-104140000D02*
X174126000Y-100466000D01*
X82550000Y-124460000D02*
X86360000Y-120650000D01*
X78740000Y-109220000D02*
X77152500Y-109220000D01*
X174126000Y-100466000D02*
X165480000Y-100466000D01*
X76200000Y-123190000D02*
X77470000Y-124460000D01*
X134620000Y-115570000D02*
X146050000Y-115570000D01*
X88900000Y-106680000D02*
X93345000Y-106680000D01*
X95885000Y-109220000D02*
X95885000Y-115570000D01*
X86360000Y-120650000D02*
X86360000Y-109220000D01*
X147320000Y-114300000D02*
X147320000Y-111760000D01*
X93345000Y-106680000D02*
X95885000Y-109220000D01*
X116840000Y-111760000D02*
X130810000Y-111760000D01*
X146050000Y-115570000D02*
X147320000Y-114300000D01*
X77470000Y-124460000D02*
X82550000Y-124460000D01*
X116840000Y-116840000D02*
X116840000Y-111760000D01*
X130810000Y-111760000D02*
X134620000Y-115570000D01*
X76200000Y-110172500D02*
X76200000Y-123190000D01*
X99695000Y-119380000D02*
X114300000Y-119380000D01*
X95885000Y-115570000D02*
X99695000Y-119380000D01*
%TO.N,SCL1*%
X77152500Y-86360000D02*
X76200000Y-87312500D01*
X99060000Y-104140000D02*
X101600000Y-104140000D01*
X78740000Y-86360000D02*
X77152500Y-86360000D01*
X93980000Y-99060000D02*
X99060000Y-104140000D01*
X76200000Y-87312500D02*
X76200000Y-97790000D01*
X76200000Y-97790000D02*
X77470000Y-99060000D01*
X77470000Y-99060000D02*
X93980000Y-99060000D01*
%TO.N,SDA0*%
X80010000Y-65405000D02*
X86360000Y-59055000D01*
X96520000Y-95250000D02*
X96520000Y-74930000D01*
X84455000Y-73025000D02*
X80010000Y-68580000D01*
X94615000Y-73025000D02*
X84455000Y-73025000D01*
X96520000Y-74930000D02*
X94615000Y-73025000D01*
X86360000Y-59055000D02*
X86360000Y-55880000D01*
X101600000Y-96520000D02*
X97790000Y-96520000D01*
X97790000Y-96520000D02*
X96520000Y-95250000D01*
X80010000Y-68580000D02*
X80010000Y-65405000D01*
%TO.N,SCL0*%
X88900000Y-55880000D02*
X88900000Y-53975000D01*
X80010000Y-53340000D02*
X78740000Y-54610000D01*
X98425000Y-99060000D02*
X101600000Y-99060000D01*
X95250000Y-77470000D02*
X95250000Y-95885000D01*
X88265000Y-53340000D02*
X80010000Y-53340000D01*
X95250000Y-95885000D02*
X98425000Y-99060000D01*
X78740000Y-69215000D02*
X85090000Y-75565000D01*
X85090000Y-75565000D02*
X93345000Y-75565000D01*
X78740000Y-54610000D02*
X78740000Y-69215000D01*
X93345000Y-75565000D02*
X95250000Y-77470000D01*
X88900000Y-53975000D02*
X88265000Y-53340000D01*
%TO.N,SDA1*%
X81280000Y-88900000D02*
X78740000Y-88900000D01*
X87630000Y-95250000D02*
X81280000Y-88900000D01*
X99060000Y-101600000D02*
X92710000Y-95250000D01*
X92710000Y-95250000D02*
X87630000Y-95250000D01*
X101600000Y-101600000D02*
X99060000Y-101600000D01*
%TO.N,SDA2*%
X109220000Y-109220000D02*
X110490000Y-107950000D01*
X110490000Y-107950000D02*
X115570000Y-107950000D01*
X115570000Y-107950000D02*
X116840000Y-106680000D01*
X109220000Y-111760000D02*
X109220000Y-109220000D01*
X116840000Y-106680000D02*
X116840000Y-104140000D01*
%TO.N,SCL2*%
X106680000Y-116840000D02*
X102870000Y-113030000D01*
X102870000Y-113030000D02*
X102870000Y-110490000D01*
X111760000Y-111760000D02*
X111760000Y-114300000D01*
X114300000Y-101600000D02*
X116840000Y-101600000D01*
X106680000Y-109220000D02*
X114300000Y-101600000D01*
X102870000Y-110490000D02*
X104140000Y-109220000D01*
X104140000Y-109220000D02*
X106680000Y-109220000D01*
X109220000Y-116840000D02*
X106680000Y-116840000D01*
X111760000Y-114300000D02*
X109220000Y-116840000D01*
%TO.N,SCL3*%
X98425000Y-106680000D02*
X104140000Y-106680000D01*
X81280000Y-114300000D02*
X83820000Y-111760000D01*
X105410000Y-105410000D02*
X105410000Y-100330000D01*
X93345000Y-101600000D02*
X98425000Y-106680000D01*
X83820000Y-111760000D02*
X83820000Y-104140000D01*
X86360000Y-101600000D02*
X93345000Y-101600000D01*
X104140000Y-106680000D02*
X105410000Y-105410000D01*
X105410000Y-100330000D02*
X109220000Y-96520000D01*
X78740000Y-114300000D02*
X81280000Y-114300000D01*
X83820000Y-104140000D02*
X86360000Y-101600000D01*
X109220000Y-96520000D02*
X116840000Y-96520000D01*
%TO.N,SDA3*%
X87630000Y-102870000D02*
X92710000Y-102870000D01*
X110490000Y-99060000D02*
X116840000Y-99060000D01*
X85090000Y-105410000D02*
X87630000Y-102870000D01*
X82550000Y-116840000D02*
X85090000Y-114300000D01*
X107950000Y-101600000D02*
X110490000Y-99060000D01*
X107950000Y-105410000D02*
X107950000Y-101600000D01*
X78740000Y-116840000D02*
X82550000Y-116840000D01*
X92710000Y-102870000D02*
X97790000Y-107950000D01*
X97790000Y-107950000D02*
X105410000Y-107950000D01*
X85090000Y-114300000D02*
X85090000Y-105410000D01*
X105410000Y-107950000D02*
X107950000Y-105410000D01*
%TO.N,Net-(J5-Pin_1)*%
X167640000Y-122555000D02*
X168275000Y-121920000D01*
X170220000Y-67350000D02*
X170220000Y-63500000D01*
X167640000Y-124460000D02*
X167640000Y-122555000D01*
X186690000Y-78740000D02*
X185420000Y-77470000D01*
X168275000Y-121920000D02*
X185420000Y-121920000D01*
X185420000Y-77470000D02*
X177800000Y-77470000D01*
X173990000Y-73660000D02*
X173990000Y-71120000D01*
X185420000Y-121920000D02*
X186690000Y-120650000D01*
X173990000Y-71120000D02*
X170220000Y-67350000D01*
X186690000Y-120650000D02*
X186690000Y-78740000D01*
X177800000Y-77470000D02*
X173990000Y-73660000D01*
%TO.N,Net-(J5-Pin_2)*%
X172720000Y-67310000D02*
X175260000Y-69850000D01*
X175260000Y-72390000D02*
X179070000Y-76200000D01*
X185420000Y-124460000D02*
X177800000Y-124460000D01*
X187960000Y-121920000D02*
X185420000Y-124460000D01*
X179070000Y-76200000D02*
X186690000Y-76200000D01*
X172720000Y-63500000D02*
X172720000Y-67310000D01*
X175260000Y-69850000D02*
X175260000Y-72390000D01*
X186690000Y-76200000D02*
X187960000Y-77470000D01*
X187960000Y-77470000D02*
X187960000Y-121920000D01*
%TO.N,Net-(J10-Pin_2)*%
X109220000Y-66040000D02*
X109220000Y-63500000D01*
X106655000Y-68605000D02*
X109220000Y-66040000D01*
X93950000Y-68605000D02*
X106655000Y-68605000D01*
%TO.N,Net-(J10-Pin_1)*%
X83790000Y-68605000D02*
X83790000Y-67340000D01*
X83790000Y-67340000D02*
X85090000Y-66040000D01*
X85090000Y-66040000D02*
X106045000Y-66040000D01*
X106720000Y-65365000D02*
X106720000Y-63500000D01*
X106045000Y-66040000D02*
X106720000Y-65365000D01*
%TO.N,Net-(J12-Pin_5)*%
X119380000Y-59690000D02*
X118110000Y-58420000D01*
X109220000Y-58420000D02*
X101600000Y-50800000D01*
X86360000Y-81280000D02*
X91465000Y-81280000D01*
X119380000Y-63500000D02*
X119380000Y-59690000D01*
X78105000Y-50800000D02*
X76200000Y-52705000D01*
X101600000Y-50800000D02*
X78105000Y-50800000D01*
X76200000Y-52705000D02*
X76200000Y-71120000D01*
X118110000Y-58420000D02*
X109220000Y-58420000D01*
X76200000Y-71120000D02*
X86360000Y-81280000D01*
%TO.N,Net-(J18-Pin_1)*%
X135890000Y-120650000D02*
X164465000Y-120650000D01*
X116840000Y-124460000D02*
X132080000Y-124460000D01*
X182880000Y-83820000D02*
X180340000Y-81280000D01*
X170180000Y-77470000D02*
X170180000Y-73660000D01*
X132080000Y-124460000D02*
X135890000Y-120650000D01*
X164465000Y-120650000D02*
X167005000Y-118110000D01*
X173990000Y-81280000D02*
X170180000Y-77470000D01*
X157480000Y-68580000D02*
X152400000Y-63500000D01*
X182880000Y-116840000D02*
X182880000Y-83820000D01*
X181610000Y-118110000D02*
X182880000Y-116840000D01*
X152400000Y-63500000D02*
X147280000Y-63500000D01*
X165100000Y-68580000D02*
X157480000Y-68580000D01*
X167005000Y-118110000D02*
X181610000Y-118110000D01*
X170180000Y-73660000D02*
X165100000Y-68580000D01*
X180340000Y-81280000D02*
X173990000Y-81280000D01*
%TO.N,Net-(J18-Pin_5)*%
X132080000Y-121920000D02*
X107315000Y-121920000D01*
X146050000Y-67310000D02*
X153670000Y-67310000D01*
X173355000Y-83185000D02*
X179070000Y-83185000D01*
X163830000Y-69850000D02*
X168910000Y-74930000D01*
X156210000Y-69850000D02*
X163830000Y-69850000D01*
X134620000Y-119380000D02*
X132080000Y-121920000D01*
X153670000Y-67310000D02*
X156210000Y-69850000D01*
X168910000Y-74930000D02*
X168910000Y-78740000D01*
X181610000Y-85725000D02*
X181610000Y-115570000D01*
X107315000Y-121920000D02*
X106680000Y-122555000D01*
X168910000Y-78740000D02*
X173355000Y-83185000D01*
X179070000Y-83185000D02*
X181610000Y-85725000D01*
X106680000Y-122555000D02*
X106680000Y-124460000D01*
X166370000Y-116840000D02*
X163830000Y-119380000D01*
X144780000Y-63500000D02*
X144780000Y-66040000D01*
X144780000Y-66040000D02*
X146050000Y-67310000D01*
X180340000Y-116840000D02*
X166370000Y-116840000D01*
X163830000Y-119380000D02*
X134620000Y-119380000D01*
X181610000Y-115570000D02*
X180340000Y-116840000D01*
%TO.N,Net-(J19-Pin_1)*%
X172720000Y-71120000D02*
X167640000Y-66040000D01*
X163830000Y-63500000D02*
X160020000Y-63500000D01*
X163830000Y-124460000D02*
X167640000Y-120650000D01*
X185420000Y-80010000D02*
X184150000Y-78740000D01*
X172720000Y-74930000D02*
X172720000Y-71120000D01*
X167640000Y-66040000D02*
X166370000Y-66040000D01*
X166370000Y-66040000D02*
X163830000Y-63500000D01*
X184150000Y-78740000D02*
X176530000Y-78740000D01*
X176530000Y-78740000D02*
X172720000Y-74930000D01*
X167640000Y-120650000D02*
X184150000Y-120650000D01*
X185420000Y-119380000D02*
X185420000Y-80010000D01*
X184150000Y-120650000D02*
X185420000Y-119380000D01*
X147320000Y-124460000D02*
X163830000Y-124460000D01*
%TD*%
%TA.AperFunction,Conductor*%
%TO.N,GND*%
G36*
X172528363Y-51320185D02*
G01*
X172549005Y-51336819D01*
X177263181Y-56050995D01*
X177296666Y-56112318D01*
X177299500Y-56138676D01*
X177299500Y-71185891D01*
X177333608Y-71313187D01*
X177366554Y-71370250D01*
X177399500Y-71427314D01*
X179939500Y-73967314D01*
X180032686Y-74060500D01*
X180146814Y-74126392D01*
X180274107Y-74160500D01*
X180274108Y-74160500D01*
X187701324Y-74160500D01*
X187768363Y-74180185D01*
X187789005Y-74196819D01*
X189963181Y-76370995D01*
X189996666Y-76432318D01*
X189999500Y-76458676D01*
X189999500Y-129281324D01*
X189979815Y-129348363D01*
X189963181Y-129369005D01*
X187789005Y-131543181D01*
X187727682Y-131576666D01*
X187701324Y-131579500D01*
X76458676Y-131579500D01*
X76391637Y-131559815D01*
X76370995Y-131543181D01*
X71656819Y-126829005D01*
X71623334Y-126767682D01*
X71620500Y-126741324D01*
X71620500Y-125051229D01*
X71640185Y-124984190D01*
X71692989Y-124938435D01*
X71762147Y-124928491D01*
X71825703Y-124957516D01*
X71832181Y-124963548D01*
X74347049Y-127478416D01*
X74451584Y-127582951D01*
X74451587Y-127582953D01*
X74451588Y-127582954D01*
X74574503Y-127665083D01*
X74574506Y-127665085D01*
X74631079Y-127688518D01*
X74631080Y-127688518D01*
X74711088Y-127721659D01*
X74827241Y-127744763D01*
X74846468Y-127748587D01*
X74856081Y-127750500D01*
X74856082Y-127750500D01*
X88973920Y-127750500D01*
X89071462Y-127731096D01*
X89118913Y-127721658D01*
X89255495Y-127665084D01*
X89304729Y-127632186D01*
X89378416Y-127582952D01*
X92022951Y-124938416D01*
X92105084Y-124815495D01*
X92161658Y-124678913D01*
X92165090Y-124661658D01*
X92190500Y-124533918D01*
X92190500Y-120954499D01*
X92210185Y-120887460D01*
X92262989Y-120841705D01*
X92314500Y-120830499D01*
X92737871Y-120830499D01*
X92737872Y-120830499D01*
X92797483Y-120824091D01*
X92932331Y-120773796D01*
X93047546Y-120687546D01*
X93133796Y-120572331D01*
X93184091Y-120437483D01*
X93190500Y-120377873D01*
X93190499Y-118382128D01*
X93184091Y-118322517D01*
X93133796Y-118187669D01*
X93133795Y-118187668D01*
X93133793Y-118187664D01*
X93047547Y-118072455D01*
X93047544Y-118072452D01*
X92932335Y-117986206D01*
X92932328Y-117986202D01*
X92902566Y-117975102D01*
X92846632Y-117933231D01*
X92822215Y-117867767D01*
X92837066Y-117799494D01*
X92845581Y-117786034D01*
X92846375Y-117784940D01*
X92846379Y-117784937D01*
X92980579Y-117600228D01*
X93084231Y-117396799D01*
X93154784Y-117179660D01*
X93159827Y-117147819D01*
X93190500Y-116954162D01*
X93190500Y-116725837D01*
X93154784Y-116500339D01*
X93101685Y-116336919D01*
X93084231Y-116283201D01*
X93084229Y-116283198D01*
X93084229Y-116283196D01*
X92995015Y-116108105D01*
X92980579Y-116079772D01*
X92846379Y-115895063D01*
X92684937Y-115733621D01*
X92597807Y-115670317D01*
X92555143Y-115614988D01*
X92549164Y-115545374D01*
X92581770Y-115483579D01*
X92597807Y-115469683D01*
X92684937Y-115406379D01*
X92846379Y-115244937D01*
X92980579Y-115060228D01*
X93084231Y-114856799D01*
X93154784Y-114639660D01*
X93173908Y-114518917D01*
X93190500Y-114414162D01*
X93190500Y-114185837D01*
X93154784Y-113960339D01*
X93084229Y-113743196D01*
X92995015Y-113568105D01*
X92980579Y-113539772D01*
X92846379Y-113355063D01*
X92684937Y-113193621D01*
X92597807Y-113130317D01*
X92555143Y-113074988D01*
X92549164Y-113005374D01*
X92581770Y-112943579D01*
X92597807Y-112929683D01*
X92684937Y-112866379D01*
X92846379Y-112704937D01*
X92980579Y-112520228D01*
X93084231Y-112316799D01*
X93154784Y-112099660D01*
X93168985Y-112010000D01*
X93190500Y-111874162D01*
X93190500Y-111645837D01*
X93154784Y-111420339D01*
X93084229Y-111203196D01*
X92990653Y-111019544D01*
X92980579Y-110999772D01*
X92846379Y-110815063D01*
X92684937Y-110653621D01*
X92597807Y-110590317D01*
X92555143Y-110534988D01*
X92549164Y-110465374D01*
X92581770Y-110403579D01*
X92597807Y-110389683D01*
X92684937Y-110326379D01*
X92846379Y-110164937D01*
X92980579Y-109980228D01*
X93084231Y-109776799D01*
X93154784Y-109559660D01*
X93165097Y-109494548D01*
X93190500Y-109334162D01*
X93190500Y-109105837D01*
X93154784Y-108880339D01*
X93119903Y-108772989D01*
X93084231Y-108663201D01*
X93084229Y-108663198D01*
X93084229Y-108663196D01*
X93017115Y-108531479D01*
X92980579Y-108459772D01*
X92846379Y-108275063D01*
X92684937Y-108113621D01*
X92500228Y-107979421D01*
X92296803Y-107875770D01*
X92079660Y-107805215D01*
X91854162Y-107769500D01*
X91854157Y-107769500D01*
X91025843Y-107769500D01*
X91025838Y-107769500D01*
X90800339Y-107805215D01*
X90583196Y-107875770D01*
X90379771Y-107979421D01*
X90195061Y-108113622D01*
X90033622Y-108275061D01*
X89929490Y-108418386D01*
X89874159Y-108461051D01*
X89829172Y-108469500D01*
X89461076Y-108469500D01*
X89432242Y-108475234D01*
X89432243Y-108475235D01*
X89316093Y-108498339D01*
X89316083Y-108498342D01*
X89236081Y-108531479D01*
X89236082Y-108531480D01*
X89179506Y-108554915D01*
X89138645Y-108582218D01*
X89056582Y-108637049D01*
X88317045Y-109376586D01*
X88286705Y-109421997D01*
X88286703Y-109422000D01*
X88234914Y-109499507D01*
X88178343Y-109636082D01*
X88178340Y-109636092D01*
X88149500Y-109781079D01*
X88149500Y-124097770D01*
X88129815Y-124164809D01*
X88113181Y-124185451D01*
X87355451Y-124943181D01*
X87294128Y-124976666D01*
X87267770Y-124979500D01*
X83391230Y-124979500D01*
X83324191Y-124959815D01*
X83278436Y-124907011D01*
X83268492Y-124837853D01*
X83297517Y-124774297D01*
X83303549Y-124767819D01*
X84025531Y-124045837D01*
X86942952Y-121128415D01*
X86970205Y-121087627D01*
X87025084Y-121005495D01*
X87048518Y-120948920D01*
X87081659Y-120868912D01*
X87110500Y-120723917D01*
X87110500Y-120576082D01*
X87110500Y-109582229D01*
X87130185Y-109515190D01*
X87146819Y-109494548D01*
X89174548Y-107466819D01*
X89235871Y-107433334D01*
X89262229Y-107430500D01*
X92982770Y-107430500D01*
X93049809Y-107450185D01*
X93070451Y-107466819D01*
X95098181Y-109494548D01*
X95131666Y-109555871D01*
X95134500Y-109582229D01*
X95134500Y-115643918D01*
X95134500Y-115643920D01*
X95134499Y-115643920D01*
X95163340Y-115788907D01*
X95163343Y-115788917D01*
X95219914Y-115925492D01*
X95238539Y-115953366D01*
X95238540Y-115953369D01*
X95302046Y-116048414D01*
X95302052Y-116048421D01*
X98196016Y-118942383D01*
X99112048Y-119858415D01*
X99112049Y-119858416D01*
X99216584Y-119962951D01*
X99216587Y-119962953D01*
X99216588Y-119962954D01*
X99339503Y-120045083D01*
X99339506Y-120045085D01*
X99392530Y-120067048D01*
X99392531Y-120067048D01*
X99476088Y-120101659D01*
X99592241Y-120124763D01*
X99611468Y-120128587D01*
X99621081Y-120130500D01*
X99621082Y-120130500D01*
X114373920Y-120130500D01*
X114471462Y-120111096D01*
X114518913Y-120101658D01*
X114655495Y-120045084D01*
X114704729Y-120012186D01*
X114778416Y-119962952D01*
X117422951Y-117318416D01*
X117505084Y-117195495D01*
X117561658Y-117058913D01*
X117561658Y-117058912D01*
X117590500Y-116913918D01*
X117590500Y-113370828D01*
X117610185Y-113303789D01*
X117641614Y-113270510D01*
X117784937Y-113166379D01*
X117946379Y-113004937D01*
X118080579Y-112820228D01*
X118184231Y-112616799D01*
X118190931Y-112596180D01*
X118230369Y-112538505D01*
X118294728Y-112511308D01*
X118308861Y-112510500D01*
X130447770Y-112510500D01*
X130514809Y-112530185D01*
X130535451Y-112546819D01*
X134037049Y-116048416D01*
X134096738Y-116108105D01*
X134141585Y-116152952D01*
X134264498Y-116235080D01*
X134264507Y-116235085D01*
X134317533Y-116257049D01*
X134401088Y-116291659D01*
X134517241Y-116314763D01*
X134536468Y-116318587D01*
X134546081Y-116320500D01*
X134546082Y-116320500D01*
X146123920Y-116320500D01*
X146221462Y-116301096D01*
X146268913Y-116291658D01*
X146405495Y-116235084D01*
X146454729Y-116202186D01*
X146528416Y-116152952D01*
X147902951Y-114778416D01*
X147985084Y-114655495D01*
X148041658Y-114518913D01*
X148070500Y-114373918D01*
X148070500Y-114226083D01*
X148070500Y-114226082D01*
X148070500Y-113370828D01*
X148090185Y-113303789D01*
X148121614Y-113270510D01*
X148264937Y-113166379D01*
X148426379Y-113004937D01*
X148560579Y-112820228D01*
X148664231Y-112616799D01*
X148670931Y-112596180D01*
X148710369Y-112538505D01*
X148774728Y-112511308D01*
X148788861Y-112510500D01*
X153307770Y-112510500D01*
X153374809Y-112530185D01*
X153395451Y-112546819D01*
X156897049Y-116048416D01*
X156956738Y-116108105D01*
X157001585Y-116152952D01*
X157124498Y-116235080D01*
X157124507Y-116235085D01*
X157177533Y-116257049D01*
X157261088Y-116291659D01*
X157377241Y-116314763D01*
X157396468Y-116318587D01*
X157406081Y-116320500D01*
X157406082Y-116320500D01*
X157406083Y-116320500D01*
X157553918Y-116320500D01*
X165528771Y-116320500D01*
X165595810Y-116340185D01*
X165641565Y-116392989D01*
X165651509Y-116462147D01*
X165622484Y-116525703D01*
X165616453Y-116532179D01*
X164583585Y-117565047D01*
X163555451Y-118593181D01*
X163494128Y-118626666D01*
X163467770Y-118629500D01*
X134546080Y-118629500D01*
X134401154Y-118658327D01*
X134401155Y-118658328D01*
X134401092Y-118658340D01*
X134401083Y-118658343D01*
X134264507Y-118714914D01*
X134264498Y-118714919D01*
X134141584Y-118797048D01*
X134141580Y-118797051D01*
X131805451Y-121133181D01*
X131744128Y-121166666D01*
X131717770Y-121169500D01*
X107241076Y-121169500D01*
X107212242Y-121175234D01*
X107212243Y-121175235D01*
X107096093Y-121198339D01*
X107096083Y-121198342D01*
X107016081Y-121231479D01*
X107016082Y-121231480D01*
X106959505Y-121254915D01*
X106877372Y-121309795D01*
X106836585Y-121337047D01*
X106836581Y-121337050D01*
X106097048Y-122076583D01*
X106097047Y-122076585D01*
X106055403Y-122138912D01*
X106014919Y-122199499D01*
X106014912Y-122199511D01*
X105958343Y-122336082D01*
X105958340Y-122336092D01*
X105929500Y-122481079D01*
X105929500Y-122849172D01*
X105909815Y-122916211D01*
X105878386Y-122949490D01*
X105735061Y-123053622D01*
X105573622Y-123215061D01*
X105439421Y-123399771D01*
X105335770Y-123603196D01*
X105265215Y-123820339D01*
X105229500Y-124045837D01*
X105229500Y-124874162D01*
X105265215Y-125099660D01*
X105335770Y-125316803D01*
X105439421Y-125520228D01*
X105573621Y-125704937D01*
X105735063Y-125866379D01*
X105919772Y-126000579D01*
X105992860Y-126037819D01*
X106123196Y-126104229D01*
X106123198Y-126104229D01*
X106123201Y-126104231D01*
X106239592Y-126142049D01*
X106340339Y-126174784D01*
X106565838Y-126210500D01*
X106565843Y-126210500D01*
X106794162Y-126210500D01*
X107019660Y-126174784D01*
X107037972Y-126168834D01*
X107236799Y-126104231D01*
X107440228Y-126000579D01*
X107624937Y-125866379D01*
X107786379Y-125704937D01*
X107849682Y-125617807D01*
X107905012Y-125575143D01*
X107974626Y-125569164D01*
X108036421Y-125601770D01*
X108050315Y-125617804D01*
X108113621Y-125704937D01*
X108275063Y-125866379D01*
X108459772Y-126000579D01*
X108532860Y-126037819D01*
X108663196Y-126104229D01*
X108663198Y-126104229D01*
X108663201Y-126104231D01*
X108779592Y-126142049D01*
X108880339Y-126174784D01*
X109105838Y-126210500D01*
X109105843Y-126210500D01*
X109334162Y-126210500D01*
X109559660Y-126174784D01*
X109577972Y-126168834D01*
X109776799Y-126104231D01*
X109980228Y-126000579D01*
X110164937Y-125866379D01*
X110326379Y-125704937D01*
X110389682Y-125617807D01*
X110445012Y-125575143D01*
X110514626Y-125569164D01*
X110576421Y-125601770D01*
X110590315Y-125617804D01*
X110653621Y-125704937D01*
X110815063Y-125866379D01*
X110999772Y-126000579D01*
X111072860Y-126037819D01*
X111203196Y-126104229D01*
X111203198Y-126104229D01*
X111203201Y-126104231D01*
X111319592Y-126142049D01*
X111420339Y-126174784D01*
X111645838Y-126210500D01*
X111645843Y-126210500D01*
X111874162Y-126210500D01*
X112099660Y-126174784D01*
X112117972Y-126168834D01*
X112316799Y-126104231D01*
X112520228Y-126000579D01*
X112704937Y-125866379D01*
X112866379Y-125704937D01*
X112929682Y-125617807D01*
X112985012Y-125575143D01*
X113054626Y-125569164D01*
X113116421Y-125601770D01*
X113130315Y-125617804D01*
X113193621Y-125704937D01*
X113355063Y-125866379D01*
X113539772Y-126000579D01*
X113612860Y-126037819D01*
X113743196Y-126104229D01*
X113743198Y-126104229D01*
X113743201Y-126104231D01*
X113859592Y-126142049D01*
X113960339Y-126174784D01*
X114185838Y-126210500D01*
X114185843Y-126210500D01*
X114414162Y-126210500D01*
X114639660Y-126174784D01*
X114657972Y-126168834D01*
X114856799Y-126104231D01*
X115060228Y-126000579D01*
X115244937Y-125866379D01*
X115244940Y-125866375D01*
X115246034Y-125865581D01*
X115311840Y-125842101D01*
X115379894Y-125857926D01*
X115428589Y-125908031D01*
X115435102Y-125922566D01*
X115446202Y-125952328D01*
X115446206Y-125952335D01*
X115532452Y-126067544D01*
X115532455Y-126067547D01*
X115647664Y-126153793D01*
X115647671Y-126153797D01*
X115782517Y-126204091D01*
X115782516Y-126204091D01*
X115789444Y-126204835D01*
X115842127Y-126210500D01*
X117837872Y-126210499D01*
X117897483Y-126204091D01*
X118032331Y-126153796D01*
X118147546Y-126067546D01*
X118233796Y-125952331D01*
X118284091Y-125817483D01*
X118290500Y-125757873D01*
X118290500Y-125334500D01*
X118310185Y-125267461D01*
X118362989Y-125221706D01*
X118414500Y-125210500D01*
X132153920Y-125210500D01*
X132251462Y-125191096D01*
X132298913Y-125181658D01*
X132435495Y-125125084D01*
X132484729Y-125092186D01*
X132558416Y-125042952D01*
X136164548Y-121436818D01*
X136225871Y-121403334D01*
X136252229Y-121400500D01*
X136953771Y-121400500D01*
X137020810Y-121420185D01*
X137066565Y-121472989D01*
X137076509Y-121542147D01*
X137047484Y-121605703D01*
X137041452Y-121612181D01*
X136577048Y-122076583D01*
X136577047Y-122076585D01*
X136535403Y-122138912D01*
X136494919Y-122199499D01*
X136494912Y-122199511D01*
X136438343Y-122336082D01*
X136438340Y-122336092D01*
X136409500Y-122481079D01*
X136409500Y-122849172D01*
X136389815Y-122916211D01*
X136358386Y-122949490D01*
X136215061Y-123053622D01*
X136053622Y-123215061D01*
X135919421Y-123399771D01*
X135815770Y-123603196D01*
X135745215Y-123820339D01*
X135709500Y-124045837D01*
X135709500Y-124874162D01*
X135745215Y-125099660D01*
X135815770Y-125316803D01*
X135919421Y-125520228D01*
X136053621Y-125704937D01*
X136215063Y-125866379D01*
X136399772Y-126000579D01*
X136472860Y-126037819D01*
X136603196Y-126104229D01*
X136603198Y-126104229D01*
X136603201Y-126104231D01*
X136719592Y-126142049D01*
X136820339Y-126174784D01*
X137045838Y-126210500D01*
X137045843Y-126210500D01*
X137274162Y-126210500D01*
X137499660Y-126174784D01*
X137517972Y-126168834D01*
X137716799Y-126104231D01*
X137920228Y-126000579D01*
X138104937Y-125866379D01*
X138266379Y-125704937D01*
X138329682Y-125617807D01*
X138385012Y-125575143D01*
X138454626Y-125569164D01*
X138516421Y-125601770D01*
X138530315Y-125617804D01*
X138593621Y-125704937D01*
X138755063Y-125866379D01*
X138939772Y-126000579D01*
X139012860Y-126037819D01*
X139143196Y-126104229D01*
X139143198Y-126104229D01*
X139143201Y-126104231D01*
X139259592Y-126142049D01*
X139360339Y-126174784D01*
X139585838Y-126210500D01*
X139585843Y-126210500D01*
X139814162Y-126210500D01*
X140039660Y-126174784D01*
X140057972Y-126168834D01*
X140256799Y-126104231D01*
X140460228Y-126000579D01*
X140644937Y-125866379D01*
X140806379Y-125704937D01*
X140869682Y-125617807D01*
X140925012Y-125575143D01*
X140994626Y-125569164D01*
X141056421Y-125601770D01*
X141070315Y-125617804D01*
X141133621Y-125704937D01*
X141295063Y-125866379D01*
X141479772Y-126000579D01*
X141552860Y-126037819D01*
X141683196Y-126104229D01*
X141683198Y-126104229D01*
X141683201Y-126104231D01*
X141799592Y-126142049D01*
X141900339Y-126174784D01*
X142125838Y-126210500D01*
X142125843Y-126210500D01*
X142354162Y-126210500D01*
X142579660Y-126174784D01*
X142597972Y-126168834D01*
X142796799Y-126104231D01*
X143000228Y-126000579D01*
X143184937Y-125866379D01*
X143346379Y-125704937D01*
X143409682Y-125617807D01*
X143465012Y-125575143D01*
X143534626Y-125569164D01*
X143596421Y-125601770D01*
X143610315Y-125617804D01*
X143673621Y-125704937D01*
X143835063Y-125866379D01*
X144019772Y-126000579D01*
X144092860Y-126037819D01*
X144223196Y-126104229D01*
X144223198Y-126104229D01*
X144223201Y-126104231D01*
X144339592Y-126142049D01*
X144440339Y-126174784D01*
X144665838Y-126210500D01*
X144665843Y-126210500D01*
X144894162Y-126210500D01*
X145119660Y-126174784D01*
X145137972Y-126168834D01*
X145336799Y-126104231D01*
X145540228Y-126000579D01*
X145724937Y-125866379D01*
X145724940Y-125866375D01*
X145726034Y-125865581D01*
X145791840Y-125842101D01*
X145859894Y-125857926D01*
X145908589Y-125908031D01*
X145915102Y-125922566D01*
X145926202Y-125952328D01*
X145926206Y-125952335D01*
X146012452Y-126067544D01*
X146012455Y-126067547D01*
X146127664Y-126153793D01*
X146127671Y-126153797D01*
X146262517Y-126204091D01*
X146262516Y-126204091D01*
X146269444Y-126204835D01*
X146322127Y-126210500D01*
X148317872Y-126210499D01*
X148377483Y-126204091D01*
X148512331Y-126153796D01*
X148627546Y-126067546D01*
X148713796Y-125952331D01*
X148764091Y-125817483D01*
X148770500Y-125757873D01*
X148770500Y-125334500D01*
X148790185Y-125267461D01*
X148842989Y-125221706D01*
X148894500Y-125210500D01*
X163903920Y-125210500D01*
X164001462Y-125191096D01*
X164048913Y-125181658D01*
X164185495Y-125125084D01*
X164234729Y-125092186D01*
X164308416Y-125042952D01*
X166677819Y-122673547D01*
X166739142Y-122640063D01*
X166808834Y-122645047D01*
X166864767Y-122686919D01*
X166889184Y-122752383D01*
X166889500Y-122761229D01*
X166889500Y-122849172D01*
X166869815Y-122916211D01*
X166838386Y-122949490D01*
X166695061Y-123053622D01*
X166533622Y-123215061D01*
X166399421Y-123399771D01*
X166295770Y-123603196D01*
X166225215Y-123820339D01*
X166189500Y-124045837D01*
X166189500Y-124874162D01*
X166225215Y-125099660D01*
X166295770Y-125316803D01*
X166399421Y-125520228D01*
X166533621Y-125704937D01*
X166695063Y-125866379D01*
X166879772Y-126000579D01*
X166952860Y-126037819D01*
X167083196Y-126104229D01*
X167083198Y-126104229D01*
X167083201Y-126104231D01*
X167199592Y-126142049D01*
X167300339Y-126174784D01*
X167525838Y-126210500D01*
X167525843Y-126210500D01*
X167754162Y-126210500D01*
X167979660Y-126174784D01*
X167997972Y-126168834D01*
X168196799Y-126104231D01*
X168400228Y-126000579D01*
X168584937Y-125866379D01*
X168746379Y-125704937D01*
X168809682Y-125617807D01*
X168865012Y-125575143D01*
X168934626Y-125569164D01*
X168996421Y-125601770D01*
X169010315Y-125617804D01*
X169073621Y-125704937D01*
X169235063Y-125866379D01*
X169419772Y-126000579D01*
X169492860Y-126037819D01*
X169623196Y-126104229D01*
X169623198Y-126104229D01*
X169623201Y-126104231D01*
X169739592Y-126142049D01*
X169840339Y-126174784D01*
X170065838Y-126210500D01*
X170065843Y-126210500D01*
X170294162Y-126210500D01*
X170519660Y-126174784D01*
X170537972Y-126168834D01*
X170736799Y-126104231D01*
X170940228Y-126000579D01*
X171124937Y-125866379D01*
X171286379Y-125704937D01*
X171349682Y-125617807D01*
X171405012Y-125575143D01*
X171474626Y-125569164D01*
X171536421Y-125601770D01*
X171550315Y-125617804D01*
X171613621Y-125704937D01*
X171775063Y-125866379D01*
X171959772Y-126000579D01*
X172032860Y-126037819D01*
X172163196Y-126104229D01*
X172163198Y-126104229D01*
X172163201Y-126104231D01*
X172279592Y-126142049D01*
X172380339Y-126174784D01*
X172605838Y-126210500D01*
X172605843Y-126210500D01*
X172834162Y-126210500D01*
X173059660Y-126174784D01*
X173077972Y-126168834D01*
X173276799Y-126104231D01*
X173480228Y-126000579D01*
X173664937Y-125866379D01*
X173826379Y-125704937D01*
X173889682Y-125617807D01*
X173945012Y-125575143D01*
X174014626Y-125569164D01*
X174076421Y-125601770D01*
X174090315Y-125617804D01*
X174153621Y-125704937D01*
X174315063Y-125866379D01*
X174499772Y-126000579D01*
X174572860Y-126037819D01*
X174703196Y-126104229D01*
X174703198Y-126104229D01*
X174703201Y-126104231D01*
X174819592Y-126142049D01*
X174920339Y-126174784D01*
X175145838Y-126210500D01*
X175145843Y-126210500D01*
X175374162Y-126210500D01*
X175599660Y-126174784D01*
X175617972Y-126168834D01*
X175816799Y-126104231D01*
X176020228Y-126000579D01*
X176204937Y-125866379D01*
X176204940Y-125866375D01*
X176206034Y-125865581D01*
X176271840Y-125842101D01*
X176339894Y-125857926D01*
X176388589Y-125908031D01*
X176395102Y-125922566D01*
X176406202Y-125952328D01*
X176406206Y-125952335D01*
X176492452Y-126067544D01*
X176492455Y-126067547D01*
X176607664Y-126153793D01*
X176607671Y-126153797D01*
X176742517Y-126204091D01*
X176742516Y-126204091D01*
X176749444Y-126204835D01*
X176802127Y-126210500D01*
X178797872Y-126210499D01*
X178857483Y-126204091D01*
X178992331Y-126153796D01*
X179107546Y-126067546D01*
X179193796Y-125952331D01*
X179244091Y-125817483D01*
X179250500Y-125757873D01*
X179250500Y-125334500D01*
X179270185Y-125267461D01*
X179322989Y-125221706D01*
X179374500Y-125210500D01*
X185493920Y-125210500D01*
X185591462Y-125191096D01*
X185638913Y-125181658D01*
X185775495Y-125125084D01*
X185824729Y-125092186D01*
X185898416Y-125042952D01*
X188542951Y-122398416D01*
X188625084Y-122275495D01*
X188681658Y-122138913D01*
X188694056Y-122076584D01*
X188710500Y-121993918D01*
X188710500Y-77396082D01*
X188710500Y-77396079D01*
X188681659Y-77251092D01*
X188681658Y-77251091D01*
X188681658Y-77251087D01*
X188681656Y-77251082D01*
X188625087Y-77114511D01*
X188625080Y-77114498D01*
X188542952Y-76991585D01*
X188496788Y-76945421D01*
X188438416Y-76887049D01*
X188438415Y-76887048D01*
X188167449Y-76616082D01*
X187168417Y-75617048D01*
X187168416Y-75617047D01*
X187119092Y-75584091D01*
X187086355Y-75562218D01*
X187045495Y-75534916D01*
X187045494Y-75534915D01*
X187045492Y-75534914D01*
X187045490Y-75534913D01*
X186908917Y-75478343D01*
X186908907Y-75478340D01*
X186763920Y-75449500D01*
X186763918Y-75449500D01*
X179432229Y-75449500D01*
X179365190Y-75429815D01*
X179344548Y-75413181D01*
X176046819Y-72115451D01*
X176013334Y-72054128D01*
X176010500Y-72027770D01*
X176010500Y-69776079D01*
X175981659Y-69631092D01*
X175981658Y-69631091D01*
X175981658Y-69631087D01*
X175944832Y-69542181D01*
X175925087Y-69494511D01*
X175925080Y-69494498D01*
X175842952Y-69371585D01*
X175798023Y-69326656D01*
X175738416Y-69267049D01*
X175738415Y-69267048D01*
X174662204Y-68190837D01*
X173506819Y-67035451D01*
X173473334Y-66974128D01*
X173470500Y-66947770D01*
X173470500Y-65110828D01*
X173490185Y-65043789D01*
X173521614Y-65010510D01*
X173664937Y-64906379D01*
X173826379Y-64744937D01*
X173960579Y-64560228D01*
X174064231Y-64356799D01*
X174134784Y-64139660D01*
X174170500Y-63914162D01*
X174170500Y-63085837D01*
X174134784Y-62860339D01*
X174092374Y-62729815D01*
X174064231Y-62643201D01*
X174064229Y-62643198D01*
X174064229Y-62643196D01*
X173960578Y-62439771D01*
X173826379Y-62255063D01*
X173664937Y-62093621D01*
X173480228Y-61959421D01*
X173470499Y-61954464D01*
X173276803Y-61855770D01*
X173059660Y-61785215D01*
X172834162Y-61749500D01*
X172834157Y-61749500D01*
X172605843Y-61749500D01*
X172605838Y-61749500D01*
X172380339Y-61785215D01*
X172163196Y-61855770D01*
X171959768Y-61959423D01*
X171805436Y-62071552D01*
X171739630Y-62095032D01*
X171671576Y-62079207D01*
X171622881Y-62029101D01*
X171616369Y-62014566D01*
X171613798Y-62007673D01*
X171613793Y-62007664D01*
X171527547Y-61892455D01*
X171527544Y-61892452D01*
X171412335Y-61806206D01*
X171412328Y-61806202D01*
X171277482Y-61755908D01*
X171277483Y-61755908D01*
X171217883Y-61749501D01*
X171217881Y-61749500D01*
X171217873Y-61749500D01*
X171217864Y-61749500D01*
X169222129Y-61749500D01*
X169222123Y-61749501D01*
X169162516Y-61755908D01*
X169027671Y-61806202D01*
X169027664Y-61806206D01*
X168912455Y-61892452D01*
X168912452Y-61892455D01*
X168826206Y-62007664D01*
X168826202Y-62007671D01*
X168775908Y-62142517D01*
X168769501Y-62202116D01*
X168769500Y-62202135D01*
X168769500Y-64797870D01*
X168769501Y-64797876D01*
X168775908Y-64857483D01*
X168826202Y-64992328D01*
X168826206Y-64992335D01*
X168912452Y-65107544D01*
X168912455Y-65107547D01*
X169027664Y-65193793D01*
X169027671Y-65193797D01*
X169072618Y-65210561D01*
X169162517Y-65244091D01*
X169222127Y-65250500D01*
X169345500Y-65250499D01*
X169412539Y-65270183D01*
X169458294Y-65322987D01*
X169469500Y-65374499D01*
X169469500Y-66508769D01*
X169449815Y-66575808D01*
X169397011Y-66621563D01*
X169327853Y-66631507D01*
X169264297Y-66602482D01*
X169257819Y-66596450D01*
X168118421Y-65457052D01*
X168118414Y-65457046D01*
X168044729Y-65407812D01*
X168044729Y-65407813D01*
X167995491Y-65374913D01*
X167858917Y-65318343D01*
X167858907Y-65318340D01*
X167713920Y-65289500D01*
X167713918Y-65289500D01*
X166732229Y-65289500D01*
X166665190Y-65269815D01*
X166644548Y-65253181D01*
X164308421Y-62917052D01*
X164308414Y-62917046D01*
X164223644Y-62860405D01*
X164223545Y-62860340D01*
X164185495Y-62834916D01*
X164185494Y-62834915D01*
X164185492Y-62834914D01*
X164048917Y-62778343D01*
X164048907Y-62778340D01*
X163903920Y-62749500D01*
X163903918Y-62749500D01*
X161488861Y-62749500D01*
X161421822Y-62729815D01*
X161376067Y-62677011D01*
X161370931Y-62663820D01*
X161364231Y-62643200D01*
X161260578Y-62439771D01*
X161126379Y-62255063D01*
X160964937Y-62093621D01*
X160780228Y-61959421D01*
X160770499Y-61954464D01*
X160576803Y-61855770D01*
X160359660Y-61785215D01*
X160134162Y-61749500D01*
X160134157Y-61749500D01*
X159905843Y-61749500D01*
X159905838Y-61749500D01*
X159680339Y-61785215D01*
X159463196Y-61855770D01*
X159259768Y-61959423D01*
X159105436Y-62071552D01*
X159039630Y-62095032D01*
X158971576Y-62079207D01*
X158922881Y-62029101D01*
X158916369Y-62014566D01*
X158913798Y-62007673D01*
X158913793Y-62007664D01*
X158827547Y-61892455D01*
X158827544Y-61892452D01*
X158712335Y-61806206D01*
X158712328Y-61806202D01*
X158577482Y-61755908D01*
X158577483Y-61755908D01*
X158517883Y-61749501D01*
X158517881Y-61749500D01*
X158517873Y-61749500D01*
X158517864Y-61749500D01*
X156522129Y-61749500D01*
X156522123Y-61749501D01*
X156462516Y-61755908D01*
X156327671Y-61806202D01*
X156327664Y-61806206D01*
X156212455Y-61892452D01*
X156212452Y-61892455D01*
X156126206Y-62007664D01*
X156126202Y-62007671D01*
X156075908Y-62142517D01*
X156069501Y-62202116D01*
X156069500Y-62202135D01*
X156069500Y-64797870D01*
X156069501Y-64797876D01*
X156075908Y-64857483D01*
X156126202Y-64992328D01*
X156126206Y-64992335D01*
X156212452Y-65107544D01*
X156212455Y-65107547D01*
X156327664Y-65193793D01*
X156327671Y-65193797D01*
X156372618Y-65210561D01*
X156462517Y-65244091D01*
X156522127Y-65250500D01*
X156645500Y-65250499D01*
X156712539Y-65270183D01*
X156758294Y-65322987D01*
X156769500Y-65374499D01*
X156769500Y-66153918D01*
X156769500Y-66153920D01*
X156769499Y-66153920D01*
X156798340Y-66298907D01*
X156798343Y-66298917D01*
X156854914Y-66435492D01*
X156887812Y-66484727D01*
X156887813Y-66484730D01*
X156937046Y-66558414D01*
X156937052Y-66558421D01*
X157996452Y-67617819D01*
X158029937Y-67679142D01*
X158024953Y-67748833D01*
X157983082Y-67804767D01*
X157917617Y-67829184D01*
X157908771Y-67829500D01*
X157842230Y-67829500D01*
X157775191Y-67809815D01*
X157754549Y-67793181D01*
X152878421Y-62917052D01*
X152878414Y-62917046D01*
X152793644Y-62860405D01*
X152793545Y-62860340D01*
X152755495Y-62834916D01*
X152755494Y-62834915D01*
X152755492Y-62834914D01*
X152618917Y-62778343D01*
X152618907Y-62778340D01*
X152473920Y-62749500D01*
X152473918Y-62749500D01*
X148748861Y-62749500D01*
X148681822Y-62729815D01*
X148636067Y-62677011D01*
X148630931Y-62663820D01*
X148624231Y-62643200D01*
X148520578Y-62439771D01*
X148386379Y-62255063D01*
X148224937Y-62093621D01*
X148040228Y-61959421D01*
X148030499Y-61954464D01*
X147836803Y-61855770D01*
X147619660Y-61785215D01*
X147394162Y-61749500D01*
X147394157Y-61749500D01*
X147165843Y-61749500D01*
X147165838Y-61749500D01*
X146940339Y-61785215D01*
X146723196Y-61855770D01*
X146519768Y-61959423D01*
X146365436Y-62071552D01*
X146299630Y-62095032D01*
X146231576Y-62079207D01*
X146182881Y-62029101D01*
X146176369Y-62014566D01*
X146173798Y-62007673D01*
X146173793Y-62007664D01*
X146087547Y-61892455D01*
X146087544Y-61892452D01*
X145972335Y-61806206D01*
X145972328Y-61806202D01*
X145837482Y-61755908D01*
X145837483Y-61755908D01*
X145777883Y-61749501D01*
X145777881Y-61749500D01*
X145777873Y-61749500D01*
X145777864Y-61749500D01*
X143782129Y-61749500D01*
X143782123Y-61749501D01*
X143722516Y-61755908D01*
X143587671Y-61806202D01*
X143587664Y-61806206D01*
X143472455Y-61892452D01*
X143472452Y-61892455D01*
X143386206Y-62007664D01*
X143386202Y-62007671D01*
X143335908Y-62142517D01*
X143329501Y-62202116D01*
X143329500Y-62202135D01*
X143329500Y-64797870D01*
X143329501Y-64797876D01*
X143335908Y-64857483D01*
X143386202Y-64992328D01*
X143386206Y-64992335D01*
X143472452Y-65107544D01*
X143472455Y-65107547D01*
X143587664Y-65193793D01*
X143587671Y-65193797D01*
X143632618Y-65210561D01*
X143722517Y-65244091D01*
X143782127Y-65250500D01*
X143905500Y-65250499D01*
X143972539Y-65270183D01*
X144018294Y-65322987D01*
X144029500Y-65374499D01*
X144029500Y-66113918D01*
X144029500Y-66113920D01*
X144029499Y-66113920D01*
X144058340Y-66258907D01*
X144058343Y-66258917D01*
X144114914Y-66395492D01*
X144114915Y-66395494D01*
X144114916Y-66395495D01*
X144141640Y-66435491D01*
X144141642Y-66435493D01*
X144141643Y-66435496D01*
X144197046Y-66518414D01*
X144197052Y-66518421D01*
X145571580Y-67892948D01*
X145571584Y-67892951D01*
X145694498Y-67975080D01*
X145694511Y-67975087D01*
X145831082Y-68031656D01*
X145831087Y-68031658D01*
X145831091Y-68031658D01*
X145831092Y-68031659D01*
X145976079Y-68060500D01*
X145976082Y-68060500D01*
X146123917Y-68060500D01*
X153307770Y-68060500D01*
X153374809Y-68080185D01*
X153395451Y-68096819D01*
X155627048Y-70328415D01*
X155627049Y-70328416D01*
X155690197Y-70391564D01*
X155731585Y-70432952D01*
X155854498Y-70515080D01*
X155854511Y-70515087D01*
X155991082Y-70571656D01*
X155991087Y-70571658D01*
X155991091Y-70571658D01*
X155991092Y-70571659D01*
X156136079Y-70600500D01*
X156136082Y-70600500D01*
X163467770Y-70600500D01*
X163534809Y-70620185D01*
X163555451Y-70636819D01*
X168123181Y-75204549D01*
X168156666Y-75265872D01*
X168159500Y-75292230D01*
X168159500Y-78813918D01*
X168159500Y-78813920D01*
X168159499Y-78813920D01*
X168188340Y-78958907D01*
X168188343Y-78958917D01*
X168244913Y-79095490D01*
X168244914Y-79095491D01*
X168244916Y-79095495D01*
X168263817Y-79123782D01*
X168293876Y-79168770D01*
X168327051Y-79218420D01*
X168327052Y-79218421D01*
X172876580Y-83767948D01*
X172876584Y-83767951D01*
X172999498Y-83850080D01*
X172999511Y-83850087D01*
X173136082Y-83906656D01*
X173136087Y-83906658D01*
X173136091Y-83906658D01*
X173136092Y-83906659D01*
X173281079Y-83935500D01*
X173281082Y-83935500D01*
X173428917Y-83935500D01*
X178707770Y-83935500D01*
X178774809Y-83955185D01*
X178795451Y-83971819D01*
X180823181Y-85999548D01*
X180856666Y-86060871D01*
X180859500Y-86087229D01*
X180859500Y-115207770D01*
X180839815Y-115274809D01*
X180823181Y-115295451D01*
X180065451Y-116053181D01*
X180004128Y-116086666D01*
X179977770Y-116089500D01*
X176736230Y-116089500D01*
X176669191Y-116069815D01*
X176623436Y-116017011D01*
X176613492Y-115947853D01*
X176642517Y-115884297D01*
X176648549Y-115877819D01*
X177506305Y-115020063D01*
X178382952Y-114143416D01*
X178432186Y-114069729D01*
X178465084Y-114020495D01*
X178521658Y-113883913D01*
X178550500Y-113738918D01*
X178550500Y-113370828D01*
X178570185Y-113303789D01*
X178601614Y-113270510D01*
X178744937Y-113166379D01*
X178906379Y-113004937D01*
X179040579Y-112820228D01*
X179144231Y-112616799D01*
X179214784Y-112399660D01*
X179242301Y-112225925D01*
X179250500Y-112174162D01*
X179250500Y-111345837D01*
X179214784Y-111120339D01*
X179166523Y-110971809D01*
X179144231Y-110903201D01*
X179144229Y-110903198D01*
X179144229Y-110903196D01*
X179089550Y-110795884D01*
X179040579Y-110699772D01*
X178906379Y-110515063D01*
X178744937Y-110353621D01*
X178601613Y-110249489D01*
X178558949Y-110194159D01*
X178550500Y-110149172D01*
X178550500Y-104066081D01*
X178550499Y-104066080D01*
X178542229Y-104024500D01*
X178521659Y-103921088D01*
X178467408Y-103790117D01*
X178465764Y-103785522D01*
X178382954Y-103661588D01*
X178382953Y-103661587D01*
X178382951Y-103661584D01*
X178278416Y-103557049D01*
X178278415Y-103557048D01*
X177427743Y-102706376D01*
X174604421Y-99883052D01*
X174604414Y-99883046D01*
X174519644Y-99826405D01*
X174519545Y-99826340D01*
X174481495Y-99800916D01*
X174481494Y-99800915D01*
X174481492Y-99800914D01*
X174344917Y-99744343D01*
X174344907Y-99744340D01*
X174199920Y-99715500D01*
X174199918Y-99715500D01*
X167054499Y-99715500D01*
X166987460Y-99695815D01*
X166941705Y-99643011D01*
X166930499Y-99591500D01*
X166930499Y-99168129D01*
X166930498Y-99168123D01*
X166924091Y-99108516D01*
X166873797Y-98973671D01*
X166873793Y-98973664D01*
X166787547Y-98858455D01*
X166787544Y-98858452D01*
X166672335Y-98772206D01*
X166672328Y-98772202D01*
X166537482Y-98721908D01*
X166537483Y-98721908D01*
X166477883Y-98715501D01*
X166477881Y-98715500D01*
X166477873Y-98715500D01*
X166477864Y-98715500D01*
X164482129Y-98715500D01*
X164482123Y-98715501D01*
X164422516Y-98721908D01*
X164287671Y-98772202D01*
X164287664Y-98772206D01*
X164172455Y-98858452D01*
X164172452Y-98858455D01*
X164086206Y-98973664D01*
X164086203Y-98973669D01*
X164075102Y-99003434D01*
X164033230Y-99059367D01*
X163967766Y-99083784D01*
X163899493Y-99068932D01*
X163886034Y-99060418D01*
X163700228Y-98925421D01*
X163496803Y-98821770D01*
X163279660Y-98751215D01*
X163054162Y-98715500D01*
X163054157Y-98715500D01*
X162825843Y-98715500D01*
X162825838Y-98715500D01*
X162600339Y-98751215D01*
X162383196Y-98821770D01*
X162179771Y-98925421D01*
X161995061Y-99059622D01*
X161833623Y-99221060D01*
X161833616Y-99221069D01*
X161770317Y-99308191D01*
X161714987Y-99350857D01*
X161645373Y-99356835D01*
X161583579Y-99324228D01*
X161569683Y-99308191D01*
X161506617Y-99221391D01*
X161506379Y-99221063D01*
X161344937Y-99059621D01*
X161160228Y-98925421D01*
X161150499Y-98920464D01*
X160956803Y-98821770D01*
X160739660Y-98751215D01*
X160514162Y-98715500D01*
X160514157Y-98715500D01*
X160285843Y-98715500D01*
X160285838Y-98715500D01*
X160060339Y-98751215D01*
X159843196Y-98821770D01*
X159639771Y-98925421D01*
X159455061Y-99059622D01*
X159293622Y-99221061D01*
X159249834Y-99281329D01*
X159230319Y-99308191D01*
X159230009Y-99308617D01*
X159174678Y-99351282D01*
X159105065Y-99357261D01*
X159043270Y-99324655D01*
X159029373Y-99308616D01*
X158966000Y-99221391D01*
X158965995Y-99221385D01*
X158804614Y-99060004D01*
X158619966Y-98925849D01*
X158416602Y-98822229D01*
X158199541Y-98751703D01*
X158110000Y-98737521D01*
X158110000Y-100032988D01*
X158052993Y-100000075D01*
X157925826Y-99966000D01*
X157794174Y-99966000D01*
X157667007Y-100000075D01*
X157610000Y-100032988D01*
X157610000Y-98737521D01*
X157609999Y-98737521D01*
X157520458Y-98751703D01*
X157303397Y-98822229D01*
X157100033Y-98925849D01*
X156915385Y-99060004D01*
X156754003Y-99221386D01*
X156690626Y-99308617D01*
X156635295Y-99351283D01*
X156565682Y-99357261D01*
X156503887Y-99324655D01*
X156489990Y-99308616D01*
X156489681Y-99308191D01*
X156426379Y-99221063D01*
X156264937Y-99059621D01*
X156080228Y-98925421D01*
X156070499Y-98920464D01*
X155876803Y-98821770D01*
X155659660Y-98751215D01*
X155434162Y-98715500D01*
X155434157Y-98715500D01*
X155205843Y-98715500D01*
X155205838Y-98715500D01*
X154980339Y-98751215D01*
X154763196Y-98821770D01*
X154559771Y-98925421D01*
X154375061Y-99059622D01*
X154213623Y-99221060D01*
X154213616Y-99221069D01*
X154150317Y-99308191D01*
X154094987Y-99350857D01*
X154025373Y-99356835D01*
X153963579Y-99324228D01*
X153949683Y-99308191D01*
X153886617Y-99221391D01*
X153886379Y-99221063D01*
X153724937Y-99059621D01*
X153540228Y-98925421D01*
X153530499Y-98920464D01*
X153336803Y-98821770D01*
X153119660Y-98751215D01*
X152894162Y-98715500D01*
X152894157Y-98715500D01*
X152665843Y-98715500D01*
X152665838Y-98715500D01*
X152440339Y-98751215D01*
X152223196Y-98821770D01*
X152019771Y-98925421D01*
X151835061Y-99059622D01*
X151673623Y-99221060D01*
X151673616Y-99221069D01*
X151610317Y-99308191D01*
X151554987Y-99350857D01*
X151485373Y-99356835D01*
X151423579Y-99324228D01*
X151409683Y-99308191D01*
X151346617Y-99221391D01*
X151346379Y-99221063D01*
X151184937Y-99059621D01*
X151000228Y-98925421D01*
X150990499Y-98920464D01*
X150796803Y-98821770D01*
X150579660Y-98751215D01*
X150354162Y-98715500D01*
X150354157Y-98715500D01*
X150125843Y-98715500D01*
X150125838Y-98715500D01*
X149900339Y-98751215D01*
X149683196Y-98821770D01*
X149479771Y-98925421D01*
X149295061Y-99059622D01*
X149133623Y-99221060D01*
X149133616Y-99221069D01*
X149070317Y-99308191D01*
X149014987Y-99350857D01*
X148945373Y-99356835D01*
X148883579Y-99324228D01*
X148869683Y-99308191D01*
X148806617Y-99221391D01*
X148806379Y-99221063D01*
X148644937Y-99059621D01*
X148501613Y-98955489D01*
X148458949Y-98900159D01*
X148450500Y-98855172D01*
X148450500Y-87936079D01*
X148421659Y-87791092D01*
X148421658Y-87791088D01*
X148421658Y-87791087D01*
X148396486Y-87730317D01*
X148365085Y-87654507D01*
X148344278Y-87623367D01*
X148328609Y-87599916D01*
X148328608Y-87599914D01*
X148328607Y-87599912D01*
X148282953Y-87531585D01*
X148282947Y-87531578D01*
X143988415Y-83237047D01*
X143988413Y-83237045D01*
X143939179Y-83204150D01*
X143906355Y-83182218D01*
X143865495Y-83154916D01*
X143865494Y-83154915D01*
X143865492Y-83154914D01*
X143865490Y-83154913D01*
X143728917Y-83098343D01*
X143728907Y-83098340D01*
X143583920Y-83069500D01*
X143583918Y-83069500D01*
X132442229Y-83069500D01*
X132375190Y-83049815D01*
X132354548Y-83033181D01*
X130326819Y-81005451D01*
X130293334Y-80944128D01*
X130290500Y-80917770D01*
X130290500Y-78071837D01*
X131009500Y-78071837D01*
X131009500Y-78900162D01*
X131045215Y-79125660D01*
X131115770Y-79342803D01*
X131191026Y-79490500D01*
X131219421Y-79546228D01*
X131353621Y-79730937D01*
X131515063Y-79892379D01*
X131699772Y-80026579D01*
X131755528Y-80054988D01*
X131903196Y-80130229D01*
X131903198Y-80130229D01*
X131903201Y-80130231D01*
X132019592Y-80168049D01*
X132120339Y-80200784D01*
X132345838Y-80236500D01*
X132345843Y-80236500D01*
X132574162Y-80236500D01*
X132799660Y-80200784D01*
X133016799Y-80130231D01*
X133220228Y-80026579D01*
X133404937Y-79892379D01*
X133566379Y-79730937D01*
X133629682Y-79643807D01*
X133685012Y-79601143D01*
X133754626Y-79595164D01*
X133816421Y-79627770D01*
X133830315Y-79643804D01*
X133893621Y-79730937D01*
X134055063Y-79892379D01*
X134239772Y-80026579D01*
X134295528Y-80054988D01*
X134443196Y-80130229D01*
X134443198Y-80130229D01*
X134443201Y-80130231D01*
X134559592Y-80168049D01*
X134660339Y-80200784D01*
X134885838Y-80236500D01*
X134885843Y-80236500D01*
X135114162Y-80236500D01*
X135339660Y-80200784D01*
X135556799Y-80130231D01*
X135760228Y-80026579D01*
X135944937Y-79892379D01*
X136106379Y-79730937D01*
X136169682Y-79643807D01*
X136225012Y-79601143D01*
X136294626Y-79595164D01*
X136356421Y-79627770D01*
X136370315Y-79643804D01*
X136433621Y-79730937D01*
X136595063Y-79892379D01*
X136779772Y-80026579D01*
X136835528Y-80054988D01*
X136983196Y-80130229D01*
X136983198Y-80130229D01*
X136983201Y-80130231D01*
X137099592Y-80168049D01*
X137200339Y-80200784D01*
X137425838Y-80236500D01*
X137425843Y-80236500D01*
X137654162Y-80236500D01*
X137879660Y-80200784D01*
X138096799Y-80130231D01*
X138300228Y-80026579D01*
X138484937Y-79892379D01*
X138646379Y-79730937D01*
X138709682Y-79643807D01*
X138765012Y-79601143D01*
X138834626Y-79595164D01*
X138896421Y-79627770D01*
X138910315Y-79643804D01*
X138973621Y-79730937D01*
X139135063Y-79892379D01*
X139319772Y-80026579D01*
X139375528Y-80054988D01*
X139523196Y-80130229D01*
X139523198Y-80130229D01*
X139523201Y-80130231D01*
X139639592Y-80168049D01*
X139740339Y-80200784D01*
X139965838Y-80236500D01*
X139965843Y-80236500D01*
X140194162Y-80236500D01*
X140419660Y-80200784D01*
X140636799Y-80130231D01*
X140840228Y-80026579D01*
X141024937Y-79892379D01*
X141186379Y-79730937D01*
X141249682Y-79643807D01*
X141305012Y-79601143D01*
X141374626Y-79595164D01*
X141436421Y-79627770D01*
X141450315Y-79643804D01*
X141513621Y-79730937D01*
X141675063Y-79892379D01*
X141859772Y-80026579D01*
X141915528Y-80054988D01*
X142063196Y-80130229D01*
X142063198Y-80130229D01*
X142063201Y-80130231D01*
X142179592Y-80168049D01*
X142280339Y-80200784D01*
X142505838Y-80236500D01*
X142505843Y-80236500D01*
X142734162Y-80236500D01*
X142959660Y-80200784D01*
X143176799Y-80130231D01*
X143380228Y-80026579D01*
X143564937Y-79892379D01*
X143726379Y-79730937D01*
X143789682Y-79643807D01*
X143845012Y-79601143D01*
X143914626Y-79595164D01*
X143976421Y-79627770D01*
X143990315Y-79643804D01*
X144053621Y-79730937D01*
X144215063Y-79892379D01*
X144399772Y-80026579D01*
X144455528Y-80054988D01*
X144603196Y-80130229D01*
X144603198Y-80130229D01*
X144603201Y-80130231D01*
X144719592Y-80168049D01*
X144820339Y-80200784D01*
X145045838Y-80236500D01*
X145045843Y-80236500D01*
X145274162Y-80236500D01*
X145499660Y-80200784D01*
X145716799Y-80130231D01*
X145920228Y-80026579D01*
X146104937Y-79892379D01*
X146266379Y-79730937D01*
X146329682Y-79643807D01*
X146385012Y-79601143D01*
X146454626Y-79595164D01*
X146516421Y-79627770D01*
X146530315Y-79643804D01*
X146593621Y-79730937D01*
X146755063Y-79892379D01*
X146939772Y-80026579D01*
X146995528Y-80054988D01*
X147143196Y-80130229D01*
X147143198Y-80130229D01*
X147143201Y-80130231D01*
X147259592Y-80168049D01*
X147360339Y-80200784D01*
X147585838Y-80236500D01*
X147585843Y-80236500D01*
X147814162Y-80236500D01*
X148039660Y-80200784D01*
X148256799Y-80130231D01*
X148460228Y-80026579D01*
X148644937Y-79892379D01*
X148806379Y-79730937D01*
X148869682Y-79643807D01*
X148925012Y-79601143D01*
X148994626Y-79595164D01*
X149056421Y-79627770D01*
X149070315Y-79643804D01*
X149133621Y-79730937D01*
X149295063Y-79892379D01*
X149479772Y-80026579D01*
X149535528Y-80054988D01*
X149683196Y-80130229D01*
X149683198Y-80130229D01*
X149683201Y-80130231D01*
X149799592Y-80168049D01*
X149900339Y-80200784D01*
X150125838Y-80236500D01*
X150125843Y-80236500D01*
X150354162Y-80236500D01*
X150579660Y-80200784D01*
X150796799Y-80130231D01*
X151000228Y-80026579D01*
X151184937Y-79892379D01*
X151346379Y-79730937D01*
X151409682Y-79643807D01*
X151465012Y-79601143D01*
X151534626Y-79595164D01*
X151596421Y-79627770D01*
X151610315Y-79643804D01*
X151673621Y-79730937D01*
X151835063Y-79892379D01*
X152019772Y-80026579D01*
X152075528Y-80054988D01*
X152223196Y-80130229D01*
X152223198Y-80130229D01*
X152223201Y-80130231D01*
X152339592Y-80168049D01*
X152440339Y-80200784D01*
X152665838Y-80236500D01*
X152665843Y-80236500D01*
X152894162Y-80236500D01*
X153119660Y-80200784D01*
X153336799Y-80130231D01*
X153540228Y-80026579D01*
X153724937Y-79892379D01*
X153886379Y-79730937D01*
X153949682Y-79643807D01*
X154005012Y-79601143D01*
X154074626Y-79595164D01*
X154136421Y-79627770D01*
X154150315Y-79643804D01*
X154213621Y-79730937D01*
X154375063Y-79892379D01*
X154559772Y-80026579D01*
X154615528Y-80054988D01*
X154763196Y-80130229D01*
X154763198Y-80130229D01*
X154763201Y-80130231D01*
X154879592Y-80168049D01*
X154980339Y-80200784D01*
X155205838Y-80236500D01*
X155205843Y-80236500D01*
X155434162Y-80236500D01*
X155659660Y-80200784D01*
X155876799Y-80130231D01*
X156080228Y-80026579D01*
X156264937Y-79892379D01*
X156426379Y-79730937D01*
X156489682Y-79643807D01*
X156545012Y-79601143D01*
X156614626Y-79595164D01*
X156676421Y-79627770D01*
X156690315Y-79643804D01*
X156753621Y-79730937D01*
X156915063Y-79892379D01*
X157099772Y-80026579D01*
X157155528Y-80054988D01*
X157303196Y-80130229D01*
X157303198Y-80130229D01*
X157303201Y-80130231D01*
X157419592Y-80168049D01*
X157520339Y-80200784D01*
X157745838Y-80236500D01*
X157745843Y-80236500D01*
X157974162Y-80236500D01*
X158199660Y-80200784D01*
X158416799Y-80130231D01*
X158620228Y-80026579D01*
X158804937Y-79892379D01*
X158966379Y-79730937D01*
X159029682Y-79643807D01*
X159085012Y-79601143D01*
X159154626Y-79595164D01*
X159216421Y-79627770D01*
X159230315Y-79643804D01*
X159293621Y-79730937D01*
X159455063Y-79892379D01*
X159639772Y-80026579D01*
X159695528Y-80054988D01*
X159843196Y-80130229D01*
X159843198Y-80130229D01*
X159843201Y-80130231D01*
X159959592Y-80168049D01*
X160060339Y-80200784D01*
X160285838Y-80236500D01*
X160285843Y-80236500D01*
X160514162Y-80236500D01*
X160739660Y-80200784D01*
X160956799Y-80130231D01*
X161160228Y-80026579D01*
X161344937Y-79892379D01*
X161506379Y-79730937D01*
X161569682Y-79643807D01*
X161625012Y-79601143D01*
X161694626Y-79595164D01*
X161756421Y-79627770D01*
X161770315Y-79643804D01*
X161833621Y-79730937D01*
X161995063Y-79892379D01*
X162179772Y-80026579D01*
X162235528Y-80054988D01*
X162383196Y-80130229D01*
X162383198Y-80130229D01*
X162383201Y-80130231D01*
X162499592Y-80168049D01*
X162600339Y-80200784D01*
X162825838Y-80236500D01*
X162825843Y-80236500D01*
X163054162Y-80236500D01*
X163279660Y-80200784D01*
X163496799Y-80130231D01*
X163700228Y-80026579D01*
X163884937Y-79892379D01*
X163884940Y-79892375D01*
X163886034Y-79891581D01*
X163951840Y-79868101D01*
X164019894Y-79883926D01*
X164068589Y-79934031D01*
X164075102Y-79948566D01*
X164086202Y-79978328D01*
X164086206Y-79978335D01*
X164172452Y-80093544D01*
X164172455Y-80093547D01*
X164287664Y-80179793D01*
X164287671Y-80179797D01*
X164422517Y-80230091D01*
X164422516Y-80230091D01*
X164429444Y-80230835D01*
X164482127Y-80236500D01*
X166477872Y-80236499D01*
X166537483Y-80230091D01*
X166672331Y-80179796D01*
X166787546Y-80093546D01*
X166873796Y-79978331D01*
X166924091Y-79843483D01*
X166930500Y-79783873D01*
X166930499Y-77188128D01*
X166924091Y-77128517D01*
X166918862Y-77114498D01*
X166873797Y-76993671D01*
X166873793Y-76993664D01*
X166787547Y-76878455D01*
X166787544Y-76878452D01*
X166672335Y-76792206D01*
X166672328Y-76792202D01*
X166537482Y-76741908D01*
X166537483Y-76741908D01*
X166477883Y-76735501D01*
X166477881Y-76735500D01*
X166477873Y-76735500D01*
X166477864Y-76735500D01*
X164482129Y-76735500D01*
X164482123Y-76735501D01*
X164422516Y-76741908D01*
X164287671Y-76792202D01*
X164287664Y-76792206D01*
X164172455Y-76878452D01*
X164172452Y-76878455D01*
X164086206Y-76993664D01*
X164086203Y-76993669D01*
X164075102Y-77023434D01*
X164033230Y-77079367D01*
X163967766Y-77103784D01*
X163899493Y-77088932D01*
X163886034Y-77080418D01*
X163700228Y-76945421D01*
X163496803Y-76841770D01*
X163279660Y-76771215D01*
X163054162Y-76735500D01*
X163054157Y-76735500D01*
X162825843Y-76735500D01*
X162825838Y-76735500D01*
X162600339Y-76771215D01*
X162383196Y-76841770D01*
X162179771Y-76945421D01*
X161995061Y-77079622D01*
X161833623Y-77241060D01*
X161833616Y-77241069D01*
X161770317Y-77328191D01*
X161714987Y-77370857D01*
X161645373Y-77376835D01*
X161583579Y-77344228D01*
X161569683Y-77328191D01*
X161518308Y-77257482D01*
X161506379Y-77241063D01*
X161344937Y-77079621D01*
X161160228Y-76945421D01*
X161126891Y-76928435D01*
X160956803Y-76841770D01*
X160739660Y-76771215D01*
X160514162Y-76735500D01*
X160514157Y-76735500D01*
X160285843Y-76735500D01*
X160285838Y-76735500D01*
X160060339Y-76771215D01*
X159843196Y-76841770D01*
X159639771Y-76945421D01*
X159455061Y-77079622D01*
X159293623Y-77241060D01*
X159293616Y-77241069D01*
X159230317Y-77328191D01*
X159174987Y-77370857D01*
X159105373Y-77376835D01*
X159043579Y-77344228D01*
X159029683Y-77328191D01*
X158978308Y-77257482D01*
X158966379Y-77241063D01*
X158804937Y-77079621D01*
X158620228Y-76945421D01*
X158586891Y-76928435D01*
X158416803Y-76841770D01*
X158199660Y-76771215D01*
X157974162Y-76735500D01*
X157974157Y-76735500D01*
X157745843Y-76735500D01*
X157745838Y-76735500D01*
X157520339Y-76771215D01*
X157303196Y-76841770D01*
X157099771Y-76945421D01*
X156915061Y-77079622D01*
X156753623Y-77241060D01*
X156753616Y-77241069D01*
X156690317Y-77328191D01*
X156634987Y-77370857D01*
X156565373Y-77376835D01*
X156503579Y-77344228D01*
X156489683Y-77328191D01*
X156438308Y-77257482D01*
X156426379Y-77241063D01*
X156264937Y-77079621D01*
X156080228Y-76945421D01*
X156046891Y-76928435D01*
X155876803Y-76841770D01*
X155659660Y-76771215D01*
X155434162Y-76735500D01*
X155434157Y-76735500D01*
X155205843Y-76735500D01*
X155205838Y-76735500D01*
X154980339Y-76771215D01*
X154763196Y-76841770D01*
X154559771Y-76945421D01*
X154375061Y-77079622D01*
X154213623Y-77241060D01*
X154213616Y-77241069D01*
X154150317Y-77328191D01*
X154094987Y-77370857D01*
X154025373Y-77376835D01*
X153963579Y-77344228D01*
X153949683Y-77328191D01*
X153898308Y-77257482D01*
X153886379Y-77241063D01*
X153724937Y-77079621D01*
X153540228Y-76945421D01*
X153506891Y-76928435D01*
X153336803Y-76841770D01*
X153119660Y-76771215D01*
X152894162Y-76735500D01*
X152894157Y-76735500D01*
X152665843Y-76735500D01*
X152665838Y-76735500D01*
X152440339Y-76771215D01*
X152223196Y-76841770D01*
X152019771Y-76945421D01*
X151835061Y-77079622D01*
X151673623Y-77241060D01*
X151673616Y-77241069D01*
X151610317Y-77328191D01*
X151554987Y-77370857D01*
X151485373Y-77376835D01*
X151423579Y-77344228D01*
X151409683Y-77328191D01*
X151358308Y-77257482D01*
X151346379Y-77241063D01*
X151184937Y-77079621D01*
X151000228Y-76945421D01*
X150966891Y-76928435D01*
X150796803Y-76841770D01*
X150579660Y-76771215D01*
X150354162Y-76735500D01*
X150354157Y-76735500D01*
X150125843Y-76735500D01*
X150125838Y-76735500D01*
X149900339Y-76771215D01*
X149683196Y-76841770D01*
X149479771Y-76945421D01*
X149295061Y-77079622D01*
X149133623Y-77241060D01*
X149133616Y-77241069D01*
X149070317Y-77328191D01*
X149014987Y-77370857D01*
X148945373Y-77376835D01*
X148883579Y-77344228D01*
X148869683Y-77328191D01*
X148818308Y-77257482D01*
X148806379Y-77241063D01*
X148644937Y-77079621D01*
X148460228Y-76945421D01*
X148426891Y-76928435D01*
X148256803Y-76841770D01*
X148039660Y-76771215D01*
X147814162Y-76735500D01*
X147814157Y-76735500D01*
X147585843Y-76735500D01*
X147585838Y-76735500D01*
X147360339Y-76771215D01*
X147143196Y-76841770D01*
X146939771Y-76945421D01*
X146755061Y-77079622D01*
X146593623Y-77241060D01*
X146593616Y-77241069D01*
X146530317Y-77328191D01*
X146474987Y-77370857D01*
X146405373Y-77376835D01*
X146343579Y-77344228D01*
X146329683Y-77328191D01*
X146278308Y-77257482D01*
X146266379Y-77241063D01*
X146104937Y-77079621D01*
X145920228Y-76945421D01*
X145886891Y-76928435D01*
X145716803Y-76841770D01*
X145499660Y-76771215D01*
X145274162Y-76735500D01*
X145274157Y-76735500D01*
X145045843Y-76735500D01*
X145045838Y-76735500D01*
X144820339Y-76771215D01*
X144603196Y-76841770D01*
X144399771Y-76945421D01*
X144215061Y-77079622D01*
X144053623Y-77241060D01*
X144053616Y-77241069D01*
X143990317Y-77328191D01*
X143934987Y-77370857D01*
X143865373Y-77376835D01*
X143803579Y-77344228D01*
X143789683Y-77328191D01*
X143738308Y-77257482D01*
X143726379Y-77241063D01*
X143564937Y-77079621D01*
X143380228Y-76945421D01*
X143346891Y-76928435D01*
X143176803Y-76841770D01*
X142959660Y-76771215D01*
X142734162Y-76735500D01*
X142734157Y-76735500D01*
X142505843Y-76735500D01*
X142505838Y-76735500D01*
X142280339Y-76771215D01*
X142063196Y-76841770D01*
X141859771Y-76945421D01*
X141675061Y-77079622D01*
X141513623Y-77241060D01*
X141513616Y-77241069D01*
X141450317Y-77328191D01*
X141394987Y-77370857D01*
X141325373Y-77376835D01*
X141263579Y-77344228D01*
X141249683Y-77328191D01*
X141198308Y-77257482D01*
X141186379Y-77241063D01*
X141024937Y-77079621D01*
X140840228Y-76945421D01*
X140806891Y-76928435D01*
X140636803Y-76841770D01*
X140419660Y-76771215D01*
X140194162Y-76735500D01*
X140194157Y-76735500D01*
X139965843Y-76735500D01*
X139965838Y-76735500D01*
X139740339Y-76771215D01*
X139523196Y-76841770D01*
X139319771Y-76945421D01*
X139135061Y-77079622D01*
X138973623Y-77241060D01*
X138973616Y-77241069D01*
X138910317Y-77328191D01*
X138854987Y-77370857D01*
X138785373Y-77376835D01*
X138723579Y-77344228D01*
X138709683Y-77328191D01*
X138658308Y-77257482D01*
X138646379Y-77241063D01*
X138484937Y-77079621D01*
X138300228Y-76945421D01*
X138266891Y-76928435D01*
X138096803Y-76841770D01*
X137879660Y-76771215D01*
X137654162Y-76735500D01*
X137654157Y-76735500D01*
X137425843Y-76735500D01*
X137425838Y-76735500D01*
X137200339Y-76771215D01*
X136983196Y-76841770D01*
X136779771Y-76945421D01*
X136595061Y-77079622D01*
X136433623Y-77241060D01*
X136433616Y-77241069D01*
X136370317Y-77328191D01*
X136314987Y-77370857D01*
X136245373Y-77376835D01*
X136183579Y-77344228D01*
X136169683Y-77328191D01*
X136118308Y-77257482D01*
X136106379Y-77241063D01*
X135944937Y-77079621D01*
X135760228Y-76945421D01*
X135726891Y-76928435D01*
X135556803Y-76841770D01*
X135339660Y-76771215D01*
X135114162Y-76735500D01*
X135114157Y-76735500D01*
X134885843Y-76735500D01*
X134885838Y-76735500D01*
X134660339Y-76771215D01*
X134443196Y-76841770D01*
X134239771Y-76945421D01*
X134055061Y-77079622D01*
X133893623Y-77241060D01*
X133893616Y-77241069D01*
X133830317Y-77328191D01*
X133774987Y-77370857D01*
X133705373Y-77376835D01*
X133643579Y-77344228D01*
X133629683Y-77328191D01*
X133578308Y-77257482D01*
X133566379Y-77241063D01*
X133404937Y-77079621D01*
X133220228Y-76945421D01*
X133186891Y-76928435D01*
X133016803Y-76841770D01*
X132799660Y-76771215D01*
X132574162Y-76735500D01*
X132574157Y-76735500D01*
X132345843Y-76735500D01*
X132345838Y-76735500D01*
X132120339Y-76771215D01*
X131903196Y-76841770D01*
X131699771Y-76945421D01*
X131515061Y-77079622D01*
X131353622Y-77241061D01*
X131219421Y-77425771D01*
X131115770Y-77629196D01*
X131045215Y-77846339D01*
X131009500Y-78071837D01*
X130290500Y-78071837D01*
X130290500Y-76126081D01*
X130290499Y-76126080D01*
X130282229Y-76084500D01*
X130261659Y-75981088D01*
X130207408Y-75850117D01*
X130205764Y-75845522D01*
X130122954Y-75721588D01*
X130122953Y-75721587D01*
X130122951Y-75721584D01*
X130018416Y-75617049D01*
X130018415Y-75617048D01*
X128598186Y-74196819D01*
X124303421Y-69902052D01*
X124303414Y-69902046D01*
X124225425Y-69849936D01*
X124225425Y-69849937D01*
X124180495Y-69819916D01*
X124180492Y-69819914D01*
X124180491Y-69819914D01*
X124043917Y-69763343D01*
X124043907Y-69763340D01*
X123898920Y-69734500D01*
X123898918Y-69734500D01*
X100891082Y-69734500D01*
X100891080Y-69734500D01*
X100746092Y-69763340D01*
X100746082Y-69763343D01*
X100609508Y-69819914D01*
X100609505Y-69819915D01*
X100609505Y-69819916D01*
X100564575Y-69849937D01*
X100564574Y-69849936D01*
X100486585Y-69902046D01*
X100486578Y-69902052D01*
X97207048Y-73181583D01*
X97199014Y-73193608D01*
X97165403Y-73243912D01*
X97124919Y-73304499D01*
X97124912Y-73304511D01*
X97068343Y-73441082D01*
X97068340Y-73441092D01*
X97039500Y-73586079D01*
X97039500Y-74088769D01*
X97019815Y-74155808D01*
X96967011Y-74201563D01*
X96897853Y-74211507D01*
X96834297Y-74182482D01*
X96827819Y-74176450D01*
X95093421Y-72442052D01*
X95093414Y-72442046D01*
X95019729Y-72392812D01*
X95019729Y-72392813D01*
X94970491Y-72359913D01*
X94833917Y-72303343D01*
X94833907Y-72303340D01*
X94688920Y-72274500D01*
X94688918Y-72274500D01*
X84817229Y-72274500D01*
X84750190Y-72254815D01*
X84729548Y-72238181D01*
X82707348Y-70215980D01*
X82673863Y-70154657D01*
X82678847Y-70084965D01*
X82720719Y-70029032D01*
X82786183Y-70004615D01*
X82854456Y-70019467D01*
X82867903Y-70027973D01*
X83029772Y-70145579D01*
X83108850Y-70185871D01*
X83233196Y-70249229D01*
X83233198Y-70249229D01*
X83233201Y-70249231D01*
X83349592Y-70287049D01*
X83450339Y-70319784D01*
X83675838Y-70355500D01*
X83675843Y-70355500D01*
X83904162Y-70355500D01*
X84129660Y-70319784D01*
X84346799Y-70249231D01*
X84550228Y-70145579D01*
X84734937Y-70011379D01*
X84896379Y-69849937D01*
X84959682Y-69762807D01*
X85015012Y-69720143D01*
X85084626Y-69714164D01*
X85146421Y-69746770D01*
X85160315Y-69762804D01*
X85223621Y-69849937D01*
X85385063Y-70011379D01*
X85569772Y-70145579D01*
X85648850Y-70185871D01*
X85773196Y-70249229D01*
X85773198Y-70249229D01*
X85773201Y-70249231D01*
X85889592Y-70287049D01*
X85990339Y-70319784D01*
X86215838Y-70355500D01*
X86215843Y-70355500D01*
X86444162Y-70355500D01*
X86669660Y-70319784D01*
X86886799Y-70249231D01*
X87090228Y-70145579D01*
X87274937Y-70011379D01*
X87436379Y-69849937D01*
X87499682Y-69762807D01*
X87555012Y-69720143D01*
X87624626Y-69714164D01*
X87686421Y-69746770D01*
X87700315Y-69762804D01*
X87763621Y-69849937D01*
X87925063Y-70011379D01*
X88109772Y-70145579D01*
X88188850Y-70185871D01*
X88313196Y-70249229D01*
X88313198Y-70249229D01*
X88313201Y-70249231D01*
X88429592Y-70287049D01*
X88530339Y-70319784D01*
X88755838Y-70355500D01*
X88755843Y-70355500D01*
X88984162Y-70355500D01*
X89209660Y-70319784D01*
X89426799Y-70249231D01*
X89630228Y-70145579D01*
X89814937Y-70011379D01*
X89976379Y-69849937D01*
X90039682Y-69762807D01*
X90095012Y-69720143D01*
X90164626Y-69714164D01*
X90226421Y-69746770D01*
X90240315Y-69762804D01*
X90303621Y-69849937D01*
X90465063Y-70011379D01*
X90649772Y-70145579D01*
X90728850Y-70185871D01*
X90853196Y-70249229D01*
X90853198Y-70249229D01*
X90853201Y-70249231D01*
X90969592Y-70287049D01*
X91070339Y-70319784D01*
X91295838Y-70355500D01*
X91295843Y-70355500D01*
X91524162Y-70355500D01*
X91749660Y-70319784D01*
X91966799Y-70249231D01*
X92170228Y-70145579D01*
X92354937Y-70011379D01*
X92354940Y-70011375D01*
X92356034Y-70010581D01*
X92421840Y-69987101D01*
X92489894Y-70002926D01*
X92538589Y-70053031D01*
X92545102Y-70067566D01*
X92556202Y-70097328D01*
X92556206Y-70097335D01*
X92642452Y-70212544D01*
X92642455Y-70212547D01*
X92757664Y-70298793D01*
X92757671Y-70298797D01*
X92892517Y-70349091D01*
X92892516Y-70349091D01*
X92899444Y-70349835D01*
X92952127Y-70355500D01*
X94947872Y-70355499D01*
X95007483Y-70349091D01*
X95142331Y-70298796D01*
X95257546Y-70212546D01*
X95343796Y-70097331D01*
X95394091Y-69962483D01*
X95400500Y-69902873D01*
X95400500Y-69479500D01*
X95420185Y-69412461D01*
X95472989Y-69366706D01*
X95524500Y-69355500D01*
X106728920Y-69355500D01*
X106826462Y-69336096D01*
X106873913Y-69326658D01*
X107010495Y-69270084D01*
X107059729Y-69237186D01*
X107133416Y-69187952D01*
X109802952Y-66518416D01*
X109825462Y-66484727D01*
X109858349Y-66435508D01*
X109858351Y-66435503D01*
X109858357Y-66435495D01*
X109885084Y-66395495D01*
X109941658Y-66258913D01*
X109962543Y-66153920D01*
X109970500Y-66113920D01*
X109970500Y-65110828D01*
X109990185Y-65043789D01*
X110021614Y-65010510D01*
X110164937Y-64906379D01*
X110326379Y-64744937D01*
X110460579Y-64560228D01*
X110564231Y-64356799D01*
X110634784Y-64139660D01*
X110670500Y-63914162D01*
X110670500Y-63085837D01*
X110634784Y-62860339D01*
X110592374Y-62729815D01*
X110564231Y-62643201D01*
X110564229Y-62643198D01*
X110564229Y-62643196D01*
X110460578Y-62439771D01*
X110326379Y-62255063D01*
X110164937Y-62093621D01*
X109980228Y-61959421D01*
X109970499Y-61954464D01*
X109776803Y-61855770D01*
X109559660Y-61785215D01*
X109334162Y-61749500D01*
X109334157Y-61749500D01*
X109105843Y-61749500D01*
X109105838Y-61749500D01*
X108880339Y-61785215D01*
X108663196Y-61855770D01*
X108459768Y-61959423D01*
X108305436Y-62071552D01*
X108239630Y-62095032D01*
X108171576Y-62079207D01*
X108122881Y-62029101D01*
X108116369Y-62014566D01*
X108113798Y-62007673D01*
X108113793Y-62007664D01*
X108027547Y-61892455D01*
X108027544Y-61892452D01*
X107912335Y-61806206D01*
X107912328Y-61806202D01*
X107777482Y-61755908D01*
X107777483Y-61755908D01*
X107717883Y-61749501D01*
X107717881Y-61749500D01*
X107717873Y-61749500D01*
X107717864Y-61749500D01*
X105722129Y-61749500D01*
X105722123Y-61749501D01*
X105662516Y-61755908D01*
X105527671Y-61806202D01*
X105527664Y-61806206D01*
X105412455Y-61892452D01*
X105412452Y-61892455D01*
X105326206Y-62007664D01*
X105326202Y-62007671D01*
X105275908Y-62142517D01*
X105269501Y-62202116D01*
X105269500Y-62202135D01*
X105269500Y-64797870D01*
X105269501Y-64797876D01*
X105275908Y-64857483D01*
X105326202Y-64992328D01*
X105326204Y-64992331D01*
X105400209Y-65091189D01*
X105424627Y-65156653D01*
X105409776Y-65224926D01*
X105360371Y-65274332D01*
X105300943Y-65289500D01*
X85016076Y-65289500D01*
X84987242Y-65295234D01*
X84987243Y-65295235D01*
X84871092Y-65318339D01*
X84871086Y-65318341D01*
X84840326Y-65331083D01*
X84734508Y-65374914D01*
X84734499Y-65374919D01*
X84674642Y-65414915D01*
X84611582Y-65457049D01*
X83207048Y-66861583D01*
X83190416Y-66886475D01*
X83173894Y-66911204D01*
X83154080Y-66940858D01*
X83124913Y-66984509D01*
X83122044Y-66989878D01*
X83120366Y-66988981D01*
X83082061Y-67036501D01*
X83067654Y-67045118D01*
X83029777Y-67064418D01*
X83029775Y-67064419D01*
X83029772Y-67064420D01*
X83029772Y-67064421D01*
X82845063Y-67198621D01*
X82845061Y-67198623D01*
X82845060Y-67198623D01*
X82683622Y-67360061D01*
X82549421Y-67544771D01*
X82445770Y-67748196D01*
X82375215Y-67965339D01*
X82339500Y-68190837D01*
X82339500Y-69019162D01*
X82375215Y-69244660D01*
X82445770Y-69461803D01*
X82532023Y-69631082D01*
X82549421Y-69665228D01*
X82667018Y-69827086D01*
X82690498Y-69892890D01*
X82674673Y-69960944D01*
X82624567Y-70009639D01*
X82556090Y-70023515D01*
X82490980Y-69998166D01*
X82479019Y-69987651D01*
X80796819Y-68305451D01*
X80763334Y-68244128D01*
X80760500Y-68217770D01*
X80760500Y-65767229D01*
X80780185Y-65700190D01*
X80796819Y-65679548D01*
X86942945Y-59533422D01*
X86942951Y-59533416D01*
X86957871Y-59511087D01*
X87025084Y-59410495D01*
X87081658Y-59273913D01*
X87107966Y-59141658D01*
X87110500Y-59128920D01*
X87110500Y-57490828D01*
X87130185Y-57423789D01*
X87161614Y-57390510D01*
X87185630Y-57373061D01*
X87304937Y-57286379D01*
X87466379Y-57124937D01*
X87529682Y-57037807D01*
X87585012Y-56995143D01*
X87654626Y-56989164D01*
X87716421Y-57021770D01*
X87730315Y-57037804D01*
X87793621Y-57124937D01*
X87955063Y-57286379D01*
X88139772Y-57420579D01*
X88218842Y-57460867D01*
X88343196Y-57524229D01*
X88343198Y-57524229D01*
X88343201Y-57524231D01*
X88459592Y-57562049D01*
X88560339Y-57594784D01*
X88785838Y-57630500D01*
X88785843Y-57630500D01*
X89014162Y-57630500D01*
X89239660Y-57594784D01*
X89241165Y-57594295D01*
X89456799Y-57524231D01*
X89660228Y-57420579D01*
X89844937Y-57286379D01*
X90006379Y-57124937D01*
X90069992Y-57037380D01*
X90125319Y-56994717D01*
X90194933Y-56988738D01*
X90256728Y-57021343D01*
X90270626Y-57037382D01*
X90334004Y-57124613D01*
X90334004Y-57124614D01*
X90495385Y-57285995D01*
X90680033Y-57420150D01*
X90883395Y-57523769D01*
X91100455Y-57594295D01*
X91190000Y-57608478D01*
X91190000Y-56313012D01*
X91247007Y-56345925D01*
X91374174Y-56380000D01*
X91505826Y-56380000D01*
X91632993Y-56345925D01*
X91690000Y-56313012D01*
X91690000Y-57608477D01*
X91779544Y-57594295D01*
X91996604Y-57523769D01*
X92199966Y-57420150D01*
X92384614Y-57285995D01*
X92545995Y-57124614D01*
X92546000Y-57124608D01*
X92609373Y-57037383D01*
X92664702Y-56994717D01*
X92734316Y-56988738D01*
X92796111Y-57021343D01*
X92810003Y-57037375D01*
X92873621Y-57124937D01*
X93035063Y-57286379D01*
X93219772Y-57420579D01*
X93298842Y-57460867D01*
X93423196Y-57524229D01*
X93423198Y-57524229D01*
X93423201Y-57524231D01*
X93539592Y-57562049D01*
X93640339Y-57594784D01*
X93865838Y-57630500D01*
X93865843Y-57630500D01*
X94094162Y-57630500D01*
X94319660Y-57594784D01*
X94321165Y-57594295D01*
X94536799Y-57524231D01*
X94740228Y-57420579D01*
X94924937Y-57286379D01*
X95086379Y-57124937D01*
X95220579Y-56940228D01*
X95324231Y-56736799D01*
X95394784Y-56519660D01*
X95409247Y-56428343D01*
X95430500Y-56294162D01*
X95430500Y-55465837D01*
X95394784Y-55240339D01*
X95324229Y-55023196D01*
X95269550Y-54915884D01*
X95220579Y-54819772D01*
X95086379Y-54635063D01*
X94924937Y-54473621D01*
X94781613Y-54369489D01*
X94738949Y-54314159D01*
X94730500Y-54269172D01*
X94730500Y-53107329D01*
X94701659Y-52962342D01*
X94701658Y-52962341D01*
X94701658Y-52962337D01*
X94645084Y-52825755D01*
X94584500Y-52735084D01*
X94562952Y-52702834D01*
X93622299Y-51762181D01*
X93588814Y-51700858D01*
X93593798Y-51631166D01*
X93635670Y-51575233D01*
X93701134Y-51550816D01*
X93709980Y-51550500D01*
X101237770Y-51550500D01*
X101304809Y-51570185D01*
X101325451Y-51586819D01*
X105094361Y-55355728D01*
X108637048Y-58898415D01*
X108637049Y-58898416D01*
X108741584Y-59002951D01*
X108741585Y-59002952D01*
X108864498Y-59085080D01*
X108864511Y-59085087D01*
X109001082Y-59141656D01*
X109001087Y-59141658D01*
X109001091Y-59141658D01*
X109001092Y-59141659D01*
X109146079Y-59170500D01*
X109146082Y-59170500D01*
X117747770Y-59170500D01*
X117814809Y-59190185D01*
X117835451Y-59206819D01*
X118593181Y-59964548D01*
X118626666Y-60025871D01*
X118629500Y-60052229D01*
X118629500Y-61625500D01*
X118609815Y-61692539D01*
X118557011Y-61738294D01*
X118505501Y-61749500D01*
X118382130Y-61749500D01*
X118382123Y-61749501D01*
X118322516Y-61755908D01*
X118187671Y-61806202D01*
X118187664Y-61806206D01*
X118072455Y-61892452D01*
X118072452Y-61892455D01*
X117986206Y-62007664D01*
X117986202Y-62007671D01*
X117935908Y-62142517D01*
X117929501Y-62202116D01*
X117929500Y-62202135D01*
X117929500Y-64797870D01*
X117929501Y-64797876D01*
X117935908Y-64857483D01*
X117986202Y-64992328D01*
X117986206Y-64992335D01*
X118072452Y-65107544D01*
X118072455Y-65107547D01*
X118187664Y-65193793D01*
X118187671Y-65193797D01*
X118322517Y-65244091D01*
X118322516Y-65244091D01*
X118329444Y-65244835D01*
X118382127Y-65250500D01*
X120377872Y-65250499D01*
X120437483Y-65244091D01*
X120572331Y-65193796D01*
X120687546Y-65107546D01*
X120773796Y-64992331D01*
X120776368Y-64985436D01*
X120818237Y-64929501D01*
X120883700Y-64905081D01*
X120951974Y-64919931D01*
X120965435Y-64928445D01*
X121119772Y-65040579D01*
X121169350Y-65065840D01*
X121323196Y-65144229D01*
X121323198Y-65144229D01*
X121323201Y-65144231D01*
X121439592Y-65182049D01*
X121540339Y-65214784D01*
X121765838Y-65250500D01*
X121765843Y-65250500D01*
X121994162Y-65250500D01*
X122219660Y-65214784D01*
X122436799Y-65144231D01*
X122640228Y-65040579D01*
X122824937Y-64906379D01*
X122986379Y-64744937D01*
X123120579Y-64560228D01*
X123224231Y-64356799D01*
X123294784Y-64139660D01*
X123330500Y-63914162D01*
X123330500Y-63085837D01*
X123294784Y-62860339D01*
X123252374Y-62729815D01*
X123224231Y-62643201D01*
X123224229Y-62643198D01*
X123224229Y-62643196D01*
X123120578Y-62439771D01*
X122986379Y-62255063D01*
X122824937Y-62093621D01*
X122681613Y-61989489D01*
X122638949Y-61934159D01*
X122630500Y-61889172D01*
X122630500Y-59960517D01*
X122639941Y-59913060D01*
X122641657Y-59908916D01*
X122641659Y-59908912D01*
X122670500Y-59763917D01*
X122670500Y-59616082D01*
X122670500Y-58346082D01*
X122670500Y-58346079D01*
X122641659Y-58201092D01*
X122641658Y-58201091D01*
X122641658Y-58201087D01*
X122604832Y-58112181D01*
X122585087Y-58064511D01*
X122585080Y-58064498D01*
X122502952Y-57941585D01*
X122461867Y-57900500D01*
X122398416Y-57837049D01*
X122398415Y-57837048D01*
X122085136Y-57523769D01*
X121128421Y-56567052D01*
X121128418Y-56567049D01*
X121054683Y-56517782D01*
X121005495Y-56484916D01*
X121005492Y-56484914D01*
X121005491Y-56484914D01*
X120868917Y-56428343D01*
X120868907Y-56428340D01*
X120723920Y-56399500D01*
X120723918Y-56399500D01*
X110217229Y-56399500D01*
X110150190Y-56379815D01*
X110129548Y-56363181D01*
X109338548Y-55572181D01*
X109305063Y-55510858D01*
X109310047Y-55441166D01*
X109351919Y-55385233D01*
X109417383Y-55360816D01*
X109426229Y-55360500D01*
X129177770Y-55360500D01*
X129244809Y-55380185D01*
X129265451Y-55396819D01*
X131293181Y-57424548D01*
X131326666Y-57485871D01*
X131329500Y-57512229D01*
X131329500Y-61625500D01*
X131309815Y-61692539D01*
X131257011Y-61738294D01*
X131205501Y-61749500D01*
X131082130Y-61749500D01*
X131082123Y-61749501D01*
X131022516Y-61755908D01*
X130887671Y-61806202D01*
X130887664Y-61806206D01*
X130772455Y-61892452D01*
X130772452Y-61892455D01*
X130686206Y-62007664D01*
X130686202Y-62007671D01*
X130635908Y-62142517D01*
X130629501Y-62202116D01*
X130629500Y-62202135D01*
X130629500Y-64797870D01*
X130629501Y-64797876D01*
X130635908Y-64857483D01*
X130686202Y-64992328D01*
X130686206Y-64992335D01*
X130772452Y-65107544D01*
X130772455Y-65107547D01*
X130887664Y-65193793D01*
X130887671Y-65193797D01*
X131022517Y-65244091D01*
X131022516Y-65244091D01*
X131029444Y-65244835D01*
X131082127Y-65250500D01*
X133077872Y-65250499D01*
X133137483Y-65244091D01*
X133272331Y-65193796D01*
X133387546Y-65107546D01*
X133473796Y-64992331D01*
X133476368Y-64985436D01*
X133518237Y-64929501D01*
X133583700Y-64905081D01*
X133651974Y-64919931D01*
X133665435Y-64928445D01*
X133819772Y-65040579D01*
X133869350Y-65065840D01*
X134023196Y-65144229D01*
X134023198Y-65144229D01*
X134023201Y-65144231D01*
X134139592Y-65182049D01*
X134240339Y-65214784D01*
X134465838Y-65250500D01*
X134465843Y-65250500D01*
X134694162Y-65250500D01*
X134919660Y-65214784D01*
X135136799Y-65144231D01*
X135340228Y-65040579D01*
X135524937Y-64906379D01*
X135686379Y-64744937D01*
X135820579Y-64560228D01*
X135924231Y-64356799D01*
X135994784Y-64139660D01*
X136030500Y-63914162D01*
X136030500Y-63085837D01*
X135994784Y-62860339D01*
X135952374Y-62729815D01*
X135924231Y-62643201D01*
X135924229Y-62643198D01*
X135924229Y-62643196D01*
X135820578Y-62439771D01*
X135686379Y-62255063D01*
X135524937Y-62093621D01*
X135381613Y-61989489D01*
X135338949Y-61934159D01*
X135330500Y-61889172D01*
X135330500Y-57420518D01*
X135339941Y-57373061D01*
X135341657Y-57368917D01*
X135341659Y-57368913D01*
X135370500Y-57223918D01*
X135370500Y-57076083D01*
X135349616Y-56971088D01*
X135341659Y-56931087D01*
X135305982Y-56844958D01*
X135285085Y-56794506D01*
X135246527Y-56736799D01*
X135202952Y-56671584D01*
X135202950Y-56671582D01*
X135202948Y-56671579D01*
X135094097Y-56562728D01*
X135094074Y-56562707D01*
X131288418Y-52757050D01*
X131288417Y-52757049D01*
X131255543Y-52735084D01*
X131207277Y-52702834D01*
X131207276Y-52702833D01*
X131165500Y-52674919D01*
X131165488Y-52674912D01*
X131028917Y-52618343D01*
X131028907Y-52618340D01*
X130883920Y-52589500D01*
X130883918Y-52589500D01*
X110217229Y-52589500D01*
X110150190Y-52569815D01*
X110129548Y-52553181D01*
X109088548Y-51512181D01*
X109055063Y-51450858D01*
X109060047Y-51381166D01*
X109101919Y-51325233D01*
X109167383Y-51300816D01*
X109176229Y-51300500D01*
X109285893Y-51300500D01*
X172461324Y-51300500D01*
X172528363Y-51320185D01*
G37*
%TD.AperFunction*%
%TA.AperFunction,Conductor*%
G36*
X92414809Y-103640185D02*
G01*
X92435451Y-103656819D01*
X97311586Y-108532954D01*
X97341058Y-108552645D01*
X97385270Y-108582186D01*
X97434505Y-108615084D01*
X97434506Y-108615084D01*
X97434507Y-108615085D01*
X97434509Y-108615086D01*
X97550658Y-108663196D01*
X97571087Y-108671658D01*
X97571091Y-108671658D01*
X97571092Y-108671659D01*
X97716079Y-108700500D01*
X97716082Y-108700500D01*
X97716083Y-108700500D01*
X97863917Y-108700500D01*
X103298771Y-108700500D01*
X103365810Y-108720185D01*
X103411565Y-108772989D01*
X103421509Y-108842147D01*
X103392484Y-108905703D01*
X103386452Y-108912181D01*
X102287052Y-110011578D01*
X102287046Y-110011585D01*
X102250552Y-110066203D01*
X102250553Y-110066204D01*
X102204913Y-110134508D01*
X102148343Y-110271082D01*
X102148340Y-110271092D01*
X102119500Y-110416079D01*
X102119500Y-110416082D01*
X102119500Y-113103918D01*
X102119500Y-113103920D01*
X102119499Y-113103920D01*
X102148340Y-113248907D01*
X102148343Y-113248917D01*
X102204912Y-113385488D01*
X102204918Y-113385499D01*
X102213223Y-113397927D01*
X102217126Y-113403769D01*
X102217432Y-113404226D01*
X102217434Y-113404231D01*
X102287046Y-113508414D01*
X102287052Y-113508421D01*
X106097049Y-117318416D01*
X106160500Y-117381867D01*
X106201585Y-117422952D01*
X106324498Y-117505080D01*
X106324507Y-117505085D01*
X106325393Y-117505452D01*
X106377533Y-117527049D01*
X106461088Y-117561659D01*
X106577241Y-117584763D01*
X106596468Y-117588587D01*
X106606081Y-117590500D01*
X106606082Y-117590500D01*
X109293920Y-117590500D01*
X109391462Y-117571096D01*
X109438913Y-117561658D01*
X109575495Y-117505084D01*
X109624729Y-117472186D01*
X109698416Y-117422952D01*
X112342951Y-114778416D01*
X112425084Y-114655495D01*
X112481658Y-114518913D01*
X112481658Y-114518912D01*
X112510500Y-114373918D01*
X112510500Y-113370828D01*
X112530185Y-113303789D01*
X112561614Y-113270510D01*
X112704937Y-113166379D01*
X112866379Y-113004937D01*
X112929992Y-112917380D01*
X112985319Y-112874717D01*
X113054933Y-112868738D01*
X113116728Y-112901343D01*
X113130626Y-112917382D01*
X113194004Y-113004613D01*
X113194004Y-113004614D01*
X113355385Y-113165995D01*
X113540033Y-113300150D01*
X113743395Y-113403769D01*
X113960455Y-113474295D01*
X114050000Y-113488478D01*
X114050000Y-112193012D01*
X114107007Y-112225925D01*
X114234174Y-112260000D01*
X114365826Y-112260000D01*
X114492993Y-112225925D01*
X114550000Y-112193012D01*
X114550000Y-113488477D01*
X114639544Y-113474295D01*
X114856604Y-113403769D01*
X115059966Y-113300150D01*
X115244614Y-113165995D01*
X115405995Y-113004614D01*
X115406000Y-113004608D01*
X115469373Y-112917383D01*
X115524702Y-112874717D01*
X115594316Y-112868738D01*
X115656111Y-112901343D01*
X115670003Y-112917375D01*
X115733621Y-113004937D01*
X115895063Y-113166379D01*
X116038386Y-113270510D01*
X116081051Y-113325841D01*
X116089500Y-113370828D01*
X116089500Y-116477770D01*
X116069815Y-116544809D01*
X116053181Y-116565451D01*
X114025451Y-118593181D01*
X113964128Y-118626666D01*
X113937770Y-118629500D01*
X100057229Y-118629500D01*
X99990190Y-118609815D01*
X99969548Y-118593181D01*
X96671819Y-115295451D01*
X96638334Y-115234128D01*
X96635500Y-115207770D01*
X96635500Y-109146079D01*
X96606659Y-109001092D01*
X96606658Y-109001091D01*
X96606658Y-109001087D01*
X96567149Y-108905703D01*
X96550087Y-108864511D01*
X96550080Y-108864498D01*
X96467952Y-108741585D01*
X96426867Y-108700500D01*
X96363416Y-108637049D01*
X96363415Y-108637048D01*
X95839988Y-108113621D01*
X93823421Y-106097052D01*
X93823414Y-106097046D01*
X93749729Y-106047812D01*
X93749729Y-106047813D01*
X93700491Y-106014913D01*
X93563917Y-105958343D01*
X93563907Y-105958340D01*
X93418920Y-105929500D01*
X93418918Y-105929500D01*
X88826082Y-105929500D01*
X88826080Y-105929500D01*
X88681092Y-105958340D01*
X88681082Y-105958343D01*
X88544511Y-106014912D01*
X88544498Y-106014919D01*
X88421584Y-106097048D01*
X86052181Y-108466451D01*
X85990858Y-108499936D01*
X85921166Y-108494952D01*
X85865233Y-108453080D01*
X85840816Y-108387616D01*
X85840500Y-108378770D01*
X85840500Y-105772229D01*
X85860185Y-105705190D01*
X85876819Y-105684548D01*
X87904548Y-103656819D01*
X87965871Y-103623334D01*
X87992229Y-103620500D01*
X92347770Y-103620500D01*
X92414809Y-103640185D01*
G37*
%TD.AperFunction*%
%TA.AperFunction,Conductor*%
G36*
X121624809Y-94750185D02*
G01*
X121645451Y-94766819D01*
X123038181Y-96159549D01*
X123071666Y-96220872D01*
X123074500Y-96247230D01*
X123074500Y-106118918D01*
X123074500Y-106118920D01*
X123074499Y-106118920D01*
X123103340Y-106263907D01*
X123103343Y-106263917D01*
X123159914Y-106400492D01*
X123159915Y-106400494D01*
X123159916Y-106400495D01*
X123163227Y-106405451D01*
X123192812Y-106449727D01*
X123192813Y-106449730D01*
X123242046Y-106523414D01*
X123242052Y-106523421D01*
X125251584Y-108532952D01*
X125251586Y-108532954D01*
X125281058Y-108552645D01*
X125325270Y-108582186D01*
X125374505Y-108615084D01*
X125374506Y-108615084D01*
X125374507Y-108615085D01*
X125374509Y-108615086D01*
X125490658Y-108663196D01*
X125511087Y-108671658D01*
X125511091Y-108671658D01*
X125511092Y-108671659D01*
X125656079Y-108700500D01*
X125656082Y-108700500D01*
X125656083Y-108700500D01*
X125803918Y-108700500D01*
X138067770Y-108700500D01*
X138134809Y-108720185D01*
X138155451Y-108736819D01*
X138913181Y-109494548D01*
X138946666Y-109555871D01*
X138949500Y-109582229D01*
X138949500Y-110149172D01*
X138929815Y-110216211D01*
X138898385Y-110249490D01*
X138753964Y-110354418D01*
X138688158Y-110377898D01*
X138620104Y-110362073D01*
X138571409Y-110311967D01*
X138564896Y-110297431D01*
X138553796Y-110267669D01*
X138553793Y-110267664D01*
X138467547Y-110152455D01*
X138467544Y-110152452D01*
X138352335Y-110066206D01*
X138352328Y-110066202D01*
X138217482Y-110015908D01*
X138217483Y-110015908D01*
X138157883Y-110009501D01*
X138157881Y-110009500D01*
X138157873Y-110009500D01*
X138157864Y-110009500D01*
X136162129Y-110009500D01*
X136162123Y-110009501D01*
X136102516Y-110015908D01*
X135967671Y-110066202D01*
X135967664Y-110066206D01*
X135852455Y-110152452D01*
X135852452Y-110152455D01*
X135766206Y-110267664D01*
X135766202Y-110267671D01*
X135715908Y-110402517D01*
X135709501Y-110462116D01*
X135709500Y-110462135D01*
X135709500Y-113057870D01*
X135709501Y-113057876D01*
X135715908Y-113117483D01*
X135766202Y-113252328D01*
X135766206Y-113252335D01*
X135852452Y-113367544D01*
X135852455Y-113367547D01*
X135967664Y-113453793D01*
X135967671Y-113453797D01*
X136102517Y-113504091D01*
X136102516Y-113504091D01*
X136109444Y-113504835D01*
X136162127Y-113510500D01*
X138157872Y-113510499D01*
X138217483Y-113504091D01*
X138352331Y-113453796D01*
X138467546Y-113367546D01*
X138553796Y-113252331D01*
X138564896Y-113222567D01*
X138606766Y-113166634D01*
X138672229Y-113142215D01*
X138740503Y-113157065D01*
X138753965Y-113165581D01*
X138755061Y-113166377D01*
X138755063Y-113166379D01*
X138939772Y-113300579D01*
X138989352Y-113325841D01*
X139143196Y-113404229D01*
X139143198Y-113404229D01*
X139143201Y-113404231D01*
X139259592Y-113442049D01*
X139360339Y-113474784D01*
X139585838Y-113510500D01*
X139585843Y-113510500D01*
X139814162Y-113510500D01*
X140039660Y-113474784D01*
X140041165Y-113474295D01*
X140256799Y-113404231D01*
X140460228Y-113300579D01*
X140644937Y-113166379D01*
X140806379Y-113004937D01*
X140869682Y-112917807D01*
X140925012Y-112875143D01*
X140994626Y-112869164D01*
X141056421Y-112901770D01*
X141070315Y-112917804D01*
X141133621Y-113004937D01*
X141295063Y-113166379D01*
X141479772Y-113300579D01*
X141529352Y-113325841D01*
X141683196Y-113404229D01*
X141683198Y-113404229D01*
X141683201Y-113404231D01*
X141799592Y-113442049D01*
X141900339Y-113474784D01*
X142125838Y-113510500D01*
X142125843Y-113510500D01*
X142354162Y-113510500D01*
X142579660Y-113474784D01*
X142581165Y-113474295D01*
X142796799Y-113404231D01*
X143000228Y-113300579D01*
X143184937Y-113166379D01*
X143346379Y-113004937D01*
X143409992Y-112917380D01*
X143465319Y-112874717D01*
X143534933Y-112868738D01*
X143596728Y-112901343D01*
X143610626Y-112917382D01*
X143674004Y-113004613D01*
X143674004Y-113004614D01*
X143835385Y-113165995D01*
X144020033Y-113300150D01*
X144223395Y-113403769D01*
X144440455Y-113474295D01*
X144530000Y-113488478D01*
X144530000Y-112193012D01*
X144587007Y-112225925D01*
X144714174Y-112260000D01*
X144845826Y-112260000D01*
X144972993Y-112225925D01*
X145030000Y-112193012D01*
X145030000Y-113488477D01*
X145119544Y-113474295D01*
X145336604Y-113403769D01*
X145539966Y-113300150D01*
X145724614Y-113165995D01*
X145885995Y-113004614D01*
X145886000Y-113004608D01*
X145949373Y-112917383D01*
X146004702Y-112874717D01*
X146074316Y-112868738D01*
X146136111Y-112901343D01*
X146150003Y-112917375D01*
X146213621Y-113004937D01*
X146375063Y-113166379D01*
X146518386Y-113270510D01*
X146561051Y-113325841D01*
X146569500Y-113370828D01*
X146569500Y-113937770D01*
X146549815Y-114004809D01*
X146533181Y-114025451D01*
X145775451Y-114783181D01*
X145714128Y-114816666D01*
X145687770Y-114819500D01*
X134982229Y-114819500D01*
X134915190Y-114799815D01*
X134894548Y-114783181D01*
X131288421Y-111177052D01*
X131288414Y-111177046D01*
X131203644Y-111120405D01*
X131203545Y-111120340D01*
X131165495Y-111094916D01*
X131165494Y-111094915D01*
X131165492Y-111094914D01*
X131028917Y-111038343D01*
X131028907Y-111038340D01*
X130883920Y-111009500D01*
X130883918Y-111009500D01*
X118308861Y-111009500D01*
X118241822Y-110989815D01*
X118196067Y-110937011D01*
X118190931Y-110923820D01*
X118184231Y-110903200D01*
X118131417Y-110799548D01*
X118080579Y-110699772D01*
X117946379Y-110515063D01*
X117784937Y-110353621D01*
X117600228Y-110219421D01*
X117590499Y-110214464D01*
X117396803Y-110115770D01*
X117179660Y-110045215D01*
X116954162Y-110009500D01*
X116954157Y-110009500D01*
X116725843Y-110009500D01*
X116725838Y-110009500D01*
X116500339Y-110045215D01*
X116283196Y-110115770D01*
X116079771Y-110219421D01*
X115895061Y-110353622D01*
X115733622Y-110515061D01*
X115697898Y-110564231D01*
X115670319Y-110602191D01*
X115670009Y-110602617D01*
X115614678Y-110645282D01*
X115545065Y-110651261D01*
X115483270Y-110618655D01*
X115469373Y-110602616D01*
X115406000Y-110515391D01*
X115405995Y-110515385D01*
X115244614Y-110354004D01*
X115059966Y-110219849D01*
X114856602Y-110116229D01*
X114639541Y-110045703D01*
X114550000Y-110031521D01*
X114550000Y-111326988D01*
X114492993Y-111294075D01*
X114365826Y-111260000D01*
X114234174Y-111260000D01*
X114107007Y-111294075D01*
X114050000Y-111326988D01*
X114050000Y-110031521D01*
X114049999Y-110031521D01*
X113960458Y-110045703D01*
X113743397Y-110116229D01*
X113540033Y-110219849D01*
X113355385Y-110354004D01*
X113194003Y-110515386D01*
X113130626Y-110602617D01*
X113075295Y-110645283D01*
X113005682Y-110651261D01*
X112943887Y-110618655D01*
X112929990Y-110602616D01*
X112929681Y-110602191D01*
X112866379Y-110515063D01*
X112704937Y-110353621D01*
X112520228Y-110219421D01*
X112510499Y-110214464D01*
X112316803Y-110115770D01*
X112099660Y-110045215D01*
X111874162Y-110009500D01*
X111874157Y-110009500D01*
X111645843Y-110009500D01*
X111645838Y-110009500D01*
X111420339Y-110045215D01*
X111203196Y-110115770D01*
X110999771Y-110219421D01*
X110815061Y-110353622D01*
X110653623Y-110515060D01*
X110653616Y-110515069D01*
X110590317Y-110602191D01*
X110534987Y-110644857D01*
X110465373Y-110650835D01*
X110403579Y-110618228D01*
X110389683Y-110602191D01*
X110326617Y-110515391D01*
X110326379Y-110515063D01*
X110164937Y-110353621D01*
X110021613Y-110249489D01*
X109978949Y-110194159D01*
X109970500Y-110149172D01*
X109970500Y-109582229D01*
X109990185Y-109515190D01*
X110006819Y-109494548D01*
X110764548Y-108736819D01*
X110825871Y-108703334D01*
X110852229Y-108700500D01*
X115643920Y-108700500D01*
X115741462Y-108681096D01*
X115788913Y-108671658D01*
X115925495Y-108615084D01*
X115974729Y-108582186D01*
X115974734Y-108582183D01*
X115999071Y-108565921D01*
X116048416Y-108532952D01*
X117422951Y-107158416D01*
X117505084Y-107035495D01*
X117561658Y-106898913D01*
X117590500Y-106753918D01*
X117590500Y-106606083D01*
X117590500Y-106606082D01*
X117590500Y-105608860D01*
X117610185Y-105541821D01*
X117662989Y-105496066D01*
X117676169Y-105490933D01*
X117696799Y-105484231D01*
X117900228Y-105380579D01*
X118084937Y-105246379D01*
X118246379Y-105084937D01*
X118380579Y-104900228D01*
X118484231Y-104696799D01*
X118554784Y-104479660D01*
X118565097Y-104414548D01*
X118590500Y-104254162D01*
X118590500Y-104025837D01*
X118554784Y-103800339D01*
X118522049Y-103699592D01*
X118484231Y-103583201D01*
X118484229Y-103583198D01*
X118484229Y-103583196D01*
X118396932Y-103411867D01*
X118380579Y-103379772D01*
X118246379Y-103195063D01*
X118084937Y-103033621D01*
X117997807Y-102970317D01*
X117955143Y-102914988D01*
X117949164Y-102845374D01*
X117981770Y-102783579D01*
X117997807Y-102769683D01*
X118084937Y-102706379D01*
X118246379Y-102544937D01*
X118380579Y-102360228D01*
X118482704Y-102159796D01*
X118484229Y-102156803D01*
X118484229Y-102156802D01*
X118484231Y-102156799D01*
X118554784Y-101939660D01*
X118573908Y-101818917D01*
X118590500Y-101714162D01*
X118590500Y-101485837D01*
X118554784Y-101260339D01*
X118484229Y-101043196D01*
X118427533Y-100931925D01*
X118380579Y-100839772D01*
X118246379Y-100655063D01*
X118084937Y-100493621D01*
X117997807Y-100430317D01*
X117955143Y-100374988D01*
X117949164Y-100305374D01*
X117981770Y-100243579D01*
X117997807Y-100229683D01*
X118084937Y-100166379D01*
X118246379Y-100004937D01*
X118380579Y-99820228D01*
X118484231Y-99616799D01*
X118554784Y-99399660D01*
X118569204Y-99308616D01*
X118590500Y-99174162D01*
X118590500Y-98945837D01*
X118554784Y-98720339D01*
X118484229Y-98503196D01*
X118400230Y-98338340D01*
X118380579Y-98299772D01*
X118246379Y-98115063D01*
X118084937Y-97953621D01*
X117997807Y-97890317D01*
X117955143Y-97834988D01*
X117949164Y-97765374D01*
X117981770Y-97703579D01*
X117997807Y-97689683D01*
X118084937Y-97626379D01*
X118246379Y-97464937D01*
X118380579Y-97280228D01*
X118484231Y-97076799D01*
X118554784Y-96859660D01*
X118590500Y-96634162D01*
X118590500Y-96405837D01*
X118554784Y-96180339D01*
X118496350Y-96000500D01*
X118484231Y-95963201D01*
X118484229Y-95963198D01*
X118484229Y-95963196D01*
X118406723Y-95811083D01*
X118380579Y-95759772D01*
X118246379Y-95575063D01*
X118084937Y-95413621D01*
X117997807Y-95350317D01*
X117955143Y-95294988D01*
X117949164Y-95225374D01*
X117981770Y-95163579D01*
X117997807Y-95149683D01*
X118084937Y-95086379D01*
X118246379Y-94924937D01*
X118350510Y-94781613D01*
X118405841Y-94738949D01*
X118450828Y-94730500D01*
X121557770Y-94730500D01*
X121624809Y-94750185D01*
G37*
%TD.AperFunction*%
%TA.AperFunction,Conductor*%
G36*
X168614809Y-106180185D02*
G01*
X168635451Y-106196819D01*
X169393181Y-106954548D01*
X169426666Y-107015871D01*
X169429500Y-107042229D01*
X169429500Y-110149172D01*
X169409815Y-110216211D01*
X169378385Y-110249490D01*
X169233964Y-110354418D01*
X169168158Y-110377898D01*
X169100104Y-110362073D01*
X169051409Y-110311967D01*
X169044896Y-110297431D01*
X169033796Y-110267669D01*
X169033793Y-110267664D01*
X168947547Y-110152455D01*
X168947544Y-110152452D01*
X168832335Y-110066206D01*
X168832328Y-110066202D01*
X168697482Y-110015908D01*
X168697483Y-110015908D01*
X168637883Y-110009501D01*
X168637881Y-110009500D01*
X168637873Y-110009500D01*
X168637864Y-110009500D01*
X166642129Y-110009500D01*
X166642123Y-110009501D01*
X166582516Y-110015908D01*
X166447671Y-110066202D01*
X166447664Y-110066206D01*
X166332455Y-110152452D01*
X166332452Y-110152455D01*
X166246206Y-110267664D01*
X166246202Y-110267671D01*
X166195908Y-110402517D01*
X166189501Y-110462116D01*
X166189500Y-110462135D01*
X166189500Y-113057870D01*
X166189501Y-113057876D01*
X166195908Y-113117483D01*
X166246202Y-113252328D01*
X166246206Y-113252335D01*
X166332452Y-113367544D01*
X166332455Y-113367547D01*
X166447664Y-113453793D01*
X166447671Y-113453797D01*
X166582517Y-113504091D01*
X166582516Y-113504091D01*
X166589444Y-113504835D01*
X166642127Y-113510500D01*
X168637872Y-113510499D01*
X168697483Y-113504091D01*
X168832331Y-113453796D01*
X168947546Y-113367546D01*
X169033796Y-113252331D01*
X169044896Y-113222567D01*
X169086766Y-113166634D01*
X169152229Y-113142215D01*
X169220503Y-113157065D01*
X169233965Y-113165581D01*
X169235061Y-113166377D01*
X169235063Y-113166379D01*
X169419772Y-113300579D01*
X169469352Y-113325841D01*
X169623196Y-113404229D01*
X169623198Y-113404229D01*
X169623201Y-113404231D01*
X169739592Y-113442049D01*
X169840339Y-113474784D01*
X170065838Y-113510500D01*
X170065843Y-113510500D01*
X170294162Y-113510500D01*
X170519660Y-113474784D01*
X170521165Y-113474295D01*
X170736799Y-113404231D01*
X170940228Y-113300579D01*
X171124937Y-113166379D01*
X171286379Y-113004937D01*
X171349682Y-112917807D01*
X171405012Y-112875143D01*
X171474626Y-112869164D01*
X171536421Y-112901770D01*
X171550315Y-112917804D01*
X171613621Y-113004937D01*
X171775063Y-113166379D01*
X171959772Y-113300579D01*
X172009352Y-113325841D01*
X172163196Y-113404229D01*
X172163198Y-113404229D01*
X172163201Y-113404231D01*
X172279592Y-113442049D01*
X172380339Y-113474784D01*
X172605838Y-113510500D01*
X172605843Y-113510500D01*
X172834162Y-113510500D01*
X173059660Y-113474784D01*
X173061165Y-113474295D01*
X173276799Y-113404231D01*
X173480228Y-113300579D01*
X173664937Y-113166379D01*
X173826379Y-113004937D01*
X173889992Y-112917380D01*
X173945319Y-112874717D01*
X174014933Y-112868738D01*
X174076728Y-112901343D01*
X174090626Y-112917382D01*
X174154004Y-113004613D01*
X174154004Y-113004614D01*
X174315385Y-113165995D01*
X174500033Y-113300150D01*
X174703395Y-113403769D01*
X174920455Y-113474295D01*
X175010000Y-113488478D01*
X175010000Y-112193012D01*
X175067007Y-112225925D01*
X175194174Y-112260000D01*
X175325826Y-112260000D01*
X175452993Y-112225925D01*
X175510000Y-112193012D01*
X175510000Y-113488477D01*
X175599544Y-113474295D01*
X175816604Y-113403769D01*
X176019966Y-113300150D01*
X176204614Y-113165995D01*
X176365995Y-113004614D01*
X176366000Y-113004608D01*
X176429373Y-112917383D01*
X176484702Y-112874717D01*
X176554316Y-112868738D01*
X176616111Y-112901343D01*
X176630003Y-112917375D01*
X176693621Y-113004937D01*
X176855063Y-113166379D01*
X176958967Y-113241870D01*
X177001632Y-113297201D01*
X177007611Y-113366814D01*
X176975005Y-113428609D01*
X176973762Y-113429869D01*
X175620451Y-114783181D01*
X175559128Y-114816666D01*
X175532770Y-114819500D01*
X157842229Y-114819500D01*
X157775190Y-114799815D01*
X157754548Y-114783181D01*
X154148421Y-111177052D01*
X154148414Y-111177046D01*
X154063644Y-111120405D01*
X154063545Y-111120340D01*
X154025495Y-111094916D01*
X154025494Y-111094915D01*
X154025492Y-111094914D01*
X153888917Y-111038343D01*
X153888907Y-111038340D01*
X153743920Y-111009500D01*
X153743918Y-111009500D01*
X148788861Y-111009500D01*
X148721822Y-110989815D01*
X148676067Y-110937011D01*
X148670931Y-110923820D01*
X148664231Y-110903200D01*
X148611417Y-110799548D01*
X148560579Y-110699772D01*
X148426379Y-110515063D01*
X148264937Y-110353621D01*
X148080228Y-110219421D01*
X148070499Y-110214464D01*
X147876803Y-110115770D01*
X147659660Y-110045215D01*
X147434162Y-110009500D01*
X147434157Y-110009500D01*
X147205843Y-110009500D01*
X147205838Y-110009500D01*
X146980339Y-110045215D01*
X146763196Y-110115770D01*
X146559771Y-110219421D01*
X146375061Y-110353622D01*
X146213622Y-110515061D01*
X146177898Y-110564231D01*
X146150319Y-110602191D01*
X146150009Y-110602617D01*
X146094678Y-110645282D01*
X146025065Y-110651261D01*
X145963270Y-110618655D01*
X145949373Y-110602616D01*
X145886000Y-110515391D01*
X145885995Y-110515385D01*
X145724614Y-110354004D01*
X145539966Y-110219849D01*
X145336602Y-110116229D01*
X145119541Y-110045703D01*
X145030000Y-110031521D01*
X145030000Y-111326988D01*
X144972993Y-111294075D01*
X144845826Y-111260000D01*
X144714174Y-111260000D01*
X144587007Y-111294075D01*
X144530000Y-111326988D01*
X144530000Y-110031521D01*
X144529999Y-110031521D01*
X144440458Y-110045703D01*
X144223397Y-110116229D01*
X144020033Y-110219849D01*
X143835385Y-110354004D01*
X143674003Y-110515386D01*
X143610626Y-110602617D01*
X143555295Y-110645283D01*
X143485682Y-110651261D01*
X143423887Y-110618655D01*
X143409990Y-110602616D01*
X143409681Y-110602191D01*
X143346379Y-110515063D01*
X143184937Y-110353621D01*
X143041613Y-110249489D01*
X142998949Y-110194159D01*
X142990500Y-110149172D01*
X142990500Y-109146079D01*
X142961659Y-109001092D01*
X142961658Y-109001091D01*
X142961658Y-109001087D01*
X142922149Y-108905703D01*
X142905087Y-108864511D01*
X142905080Y-108864498D01*
X142822952Y-108741585D01*
X142781867Y-108700500D01*
X142718416Y-108637049D01*
X142718415Y-108637048D01*
X141592533Y-107511166D01*
X140453549Y-106372181D01*
X140420064Y-106310858D01*
X140425048Y-106241166D01*
X140466920Y-106185233D01*
X140532384Y-106160816D01*
X140541230Y-106160500D01*
X168547770Y-106160500D01*
X168614809Y-106180185D01*
G37*
%TD.AperFunction*%
%TA.AperFunction,Conductor*%
G36*
X119719809Y-74430185D02*
G01*
X119740451Y-74446819D01*
X122403181Y-77109549D01*
X122436666Y-77170872D01*
X122439500Y-77197230D01*
X122439500Y-80718918D01*
X122439500Y-80718920D01*
X122439499Y-80718920D01*
X122468340Y-80863907D01*
X122468343Y-80863917D01*
X122524914Y-81000492D01*
X122524915Y-81000494D01*
X122524916Y-81000495D01*
X122528227Y-81005451D01*
X122557812Y-81049727D01*
X122557813Y-81049730D01*
X122607046Y-81123414D01*
X122607052Y-81123421D01*
X128753181Y-87269548D01*
X128786666Y-87330871D01*
X128789500Y-87357229D01*
X128789500Y-101673918D01*
X128789500Y-101673920D01*
X128789499Y-101673920D01*
X128818340Y-101818907D01*
X128818343Y-101818917D01*
X128874914Y-101955492D01*
X128907812Y-102004727D01*
X128907813Y-102004730D01*
X128957046Y-102078414D01*
X128957052Y-102078421D01*
X130056452Y-103177819D01*
X130089937Y-103239142D01*
X130084953Y-103308833D01*
X130043082Y-103364767D01*
X129977617Y-103389184D01*
X129968771Y-103389500D01*
X129267229Y-103389500D01*
X129200190Y-103369815D01*
X129179548Y-103353181D01*
X128421819Y-102595451D01*
X128388334Y-102534128D01*
X128385500Y-102507770D01*
X128385500Y-88191079D01*
X128356659Y-88046092D01*
X128356658Y-88046091D01*
X128356658Y-88046087D01*
X128311093Y-87936082D01*
X128300086Y-87909509D01*
X128300085Y-87909507D01*
X128267186Y-87860270D01*
X128267185Y-87860268D01*
X128217956Y-87786589D01*
X128217952Y-87786584D01*
X126208413Y-85777045D01*
X126159179Y-85744150D01*
X126126355Y-85722218D01*
X126085495Y-85694916D01*
X126085494Y-85694915D01*
X126085492Y-85694914D01*
X126085490Y-85694913D01*
X125948917Y-85638343D01*
X125948907Y-85638340D01*
X125803920Y-85609500D01*
X125803918Y-85609500D01*
X118450828Y-85609500D01*
X118383789Y-85589815D01*
X118350510Y-85558386D01*
X118327226Y-85526339D01*
X118246379Y-85415063D01*
X118084937Y-85253621D01*
X117997807Y-85190317D01*
X117955143Y-85134988D01*
X117949164Y-85065374D01*
X117981770Y-85003579D01*
X117997807Y-84989683D01*
X118084937Y-84926379D01*
X118246379Y-84764937D01*
X118380579Y-84580228D01*
X118484231Y-84376799D01*
X118554784Y-84159660D01*
X118563420Y-84105136D01*
X118590500Y-83934162D01*
X118590500Y-83705837D01*
X118554784Y-83480339D01*
X118513758Y-83354075D01*
X118484231Y-83263201D01*
X118484229Y-83263198D01*
X118484229Y-83263196D01*
X118405701Y-83109077D01*
X118380579Y-83059772D01*
X118246379Y-82875063D01*
X118084937Y-82713621D01*
X117997807Y-82650317D01*
X117955143Y-82594988D01*
X117949164Y-82525374D01*
X117981770Y-82463579D01*
X117997807Y-82449683D01*
X118084937Y-82386379D01*
X118246379Y-82224937D01*
X118380579Y-82040228D01*
X118484231Y-81836799D01*
X118554784Y-81619660D01*
X118565097Y-81554548D01*
X118590500Y-81394162D01*
X118590500Y-81165837D01*
X118554784Y-80940339D01*
X118496350Y-80760500D01*
X118484231Y-80723201D01*
X118484229Y-80723198D01*
X118484229Y-80723196D01*
X118405701Y-80569077D01*
X118380579Y-80519772D01*
X118246379Y-80335063D01*
X118084937Y-80173621D01*
X117997807Y-80110317D01*
X117955143Y-80054988D01*
X117949164Y-79985374D01*
X117981770Y-79923579D01*
X117997807Y-79909683D01*
X118084937Y-79846379D01*
X118246379Y-79684937D01*
X118380579Y-79500228D01*
X118484231Y-79296799D01*
X118554784Y-79079660D01*
X118568985Y-78990000D01*
X118590500Y-78854162D01*
X118590500Y-78625837D01*
X118554784Y-78400339D01*
X118504386Y-78245233D01*
X118484231Y-78183201D01*
X118484229Y-78183198D01*
X118484229Y-78183196D01*
X118418532Y-78054259D01*
X118380579Y-77979772D01*
X118246379Y-77795063D01*
X118246378Y-77795062D01*
X118245581Y-77793965D01*
X118222101Y-77728159D01*
X118237926Y-77660105D01*
X118288032Y-77611410D01*
X118302562Y-77604898D01*
X118332331Y-77593796D01*
X118447546Y-77507546D01*
X118533796Y-77392331D01*
X118584091Y-77257483D01*
X118590500Y-77197873D01*
X118590499Y-75202128D01*
X118584091Y-75142517D01*
X118533796Y-75007669D01*
X118533795Y-75007668D01*
X118533793Y-75007664D01*
X118447547Y-74892455D01*
X118447544Y-74892452D01*
X118332335Y-74806206D01*
X118332328Y-74806202D01*
X118197482Y-74755908D01*
X118197483Y-74755908D01*
X118137883Y-74749501D01*
X118137881Y-74749500D01*
X118137873Y-74749500D01*
X118137864Y-74749500D01*
X115542129Y-74749500D01*
X115542123Y-74749501D01*
X115482516Y-74755908D01*
X115347671Y-74806202D01*
X115347664Y-74806206D01*
X115232455Y-74892452D01*
X115232452Y-74892455D01*
X115146206Y-75007664D01*
X115146202Y-75007671D01*
X115095908Y-75142517D01*
X115089531Y-75201836D01*
X115089501Y-75202123D01*
X115089500Y-75202135D01*
X115089500Y-77197870D01*
X115089501Y-77197876D01*
X115095908Y-77257483D01*
X115146202Y-77392328D01*
X115146206Y-77392335D01*
X115232452Y-77507544D01*
X115232455Y-77507547D01*
X115347664Y-77593793D01*
X115347669Y-77593796D01*
X115377432Y-77604896D01*
X115433366Y-77646767D01*
X115457784Y-77712230D01*
X115442933Y-77780504D01*
X115434418Y-77793964D01*
X115299423Y-77979768D01*
X115195770Y-78183196D01*
X115125215Y-78400339D01*
X115089500Y-78625837D01*
X115089500Y-78854162D01*
X115125215Y-79079660D01*
X115195770Y-79296803D01*
X115278949Y-79460049D01*
X115299421Y-79500228D01*
X115433621Y-79684937D01*
X115595063Y-79846379D01*
X115595069Y-79846383D01*
X115682191Y-79909683D01*
X115724857Y-79965013D01*
X115730835Y-80034627D01*
X115698228Y-80096421D01*
X115682191Y-80110317D01*
X115595069Y-80173616D01*
X115595060Y-80173623D01*
X115433622Y-80335061D01*
X115299421Y-80519771D01*
X115195770Y-80723196D01*
X115125215Y-80940339D01*
X115089500Y-81165837D01*
X115089500Y-81394162D01*
X115125215Y-81619660D01*
X115195770Y-81836803D01*
X115279769Y-82001659D01*
X115299421Y-82040228D01*
X115433621Y-82224937D01*
X115595063Y-82386379D01*
X115595066Y-82386381D01*
X115595069Y-82386383D01*
X115682191Y-82449683D01*
X115724857Y-82505013D01*
X115730835Y-82574627D01*
X115698228Y-82636421D01*
X115682191Y-82650317D01*
X115595069Y-82713616D01*
X115595060Y-82713623D01*
X115433622Y-82875061D01*
X115299421Y-83059771D01*
X115195770Y-83263196D01*
X115125215Y-83480339D01*
X115089500Y-83705837D01*
X115089500Y-83934162D01*
X115125215Y-84159660D01*
X115195770Y-84376803D01*
X115279769Y-84541659D01*
X115299421Y-84580228D01*
X115433621Y-84764937D01*
X115595063Y-84926379D01*
X115595069Y-84926383D01*
X115682191Y-84989683D01*
X115724857Y-85045013D01*
X115730835Y-85114627D01*
X115698228Y-85176421D01*
X115682191Y-85190317D01*
X115595069Y-85253616D01*
X115595060Y-85253623D01*
X115433622Y-85415061D01*
X115299421Y-85599771D01*
X115195770Y-85803196D01*
X115125215Y-86020339D01*
X115089500Y-86245837D01*
X115089500Y-86474162D01*
X115125215Y-86699660D01*
X115195770Y-86916803D01*
X115216255Y-86957006D01*
X115299421Y-87120228D01*
X115433621Y-87304937D01*
X115595063Y-87466379D01*
X115595069Y-87466383D01*
X115682191Y-87529683D01*
X115724857Y-87585013D01*
X115730835Y-87654627D01*
X115698228Y-87716421D01*
X115682191Y-87730317D01*
X115595069Y-87793616D01*
X115595060Y-87793623D01*
X115433622Y-87955061D01*
X115299421Y-88139771D01*
X115195770Y-88343196D01*
X115125215Y-88560339D01*
X115089500Y-88785837D01*
X115089500Y-89014162D01*
X115125215Y-89239660D01*
X115195770Y-89456803D01*
X115251130Y-89565452D01*
X115299421Y-89660228D01*
X115433621Y-89844937D01*
X115595063Y-90006379D01*
X115613883Y-90020053D01*
X115682191Y-90069683D01*
X115724857Y-90125013D01*
X115730835Y-90194627D01*
X115698228Y-90256421D01*
X115682191Y-90270317D01*
X115595069Y-90333616D01*
X115595060Y-90333623D01*
X115433622Y-90495061D01*
X115299421Y-90679771D01*
X115195770Y-90883196D01*
X115125215Y-91100339D01*
X115089500Y-91325837D01*
X115089500Y-91554162D01*
X115125215Y-91779660D01*
X115195770Y-91996803D01*
X115292033Y-92185728D01*
X115299421Y-92200228D01*
X115433621Y-92384937D01*
X115595063Y-92546379D01*
X115595069Y-92546383D01*
X115682191Y-92609683D01*
X115724857Y-92665013D01*
X115730835Y-92734627D01*
X115698228Y-92796421D01*
X115682191Y-92810317D01*
X115595069Y-92873616D01*
X115595060Y-92873623D01*
X115433622Y-93035061D01*
X115299421Y-93219771D01*
X115195770Y-93423196D01*
X115125215Y-93640339D01*
X115089500Y-93865837D01*
X115089500Y-94094162D01*
X115125215Y-94319660D01*
X115195770Y-94536803D01*
X115279769Y-94701659D01*
X115299421Y-94740228D01*
X115433621Y-94924937D01*
X115595063Y-95086379D01*
X115595069Y-95086383D01*
X115682191Y-95149683D01*
X115724857Y-95205013D01*
X115730835Y-95274627D01*
X115698228Y-95336421D01*
X115682191Y-95350317D01*
X115595069Y-95413616D01*
X115595060Y-95413623D01*
X115433622Y-95575061D01*
X115329490Y-95718386D01*
X115274159Y-95761051D01*
X115229172Y-95769500D01*
X109146076Y-95769500D01*
X109117242Y-95775234D01*
X109117243Y-95775235D01*
X109001092Y-95798339D01*
X109001086Y-95798341D01*
X108970326Y-95811083D01*
X108864508Y-95854914D01*
X108823645Y-95882218D01*
X108741582Y-95937049D01*
X108741579Y-95937052D01*
X104827050Y-99851580D01*
X104827044Y-99851588D01*
X104777812Y-99925268D01*
X104777813Y-99925269D01*
X104744921Y-99974496D01*
X104744914Y-99974508D01*
X104688342Y-100111086D01*
X104688340Y-100111092D01*
X104659500Y-100256079D01*
X104659500Y-105047770D01*
X104639815Y-105114809D01*
X104623181Y-105135451D01*
X103865451Y-105893181D01*
X103804128Y-105926666D01*
X103777770Y-105929500D01*
X98787230Y-105929500D01*
X98720191Y-105909815D01*
X98699549Y-105893181D01*
X93823413Y-101017045D01*
X93774179Y-100984150D01*
X93741355Y-100962218D01*
X93700495Y-100934916D01*
X93700494Y-100934915D01*
X93700492Y-100934914D01*
X93700490Y-100934913D01*
X93563917Y-100878343D01*
X93563907Y-100878340D01*
X93418920Y-100849500D01*
X93418918Y-100849500D01*
X86286082Y-100849500D01*
X86286080Y-100849500D01*
X86141092Y-100878340D01*
X86141082Y-100878343D01*
X86004511Y-100934912D01*
X86004498Y-100934919D01*
X85881584Y-101017048D01*
X85881580Y-101017051D01*
X83237050Y-103661580D01*
X83237044Y-103661588D01*
X83187812Y-103735268D01*
X83187813Y-103735269D01*
X83154921Y-103784496D01*
X83154914Y-103784508D01*
X83098342Y-103921086D01*
X83098340Y-103921092D01*
X83069500Y-104066079D01*
X83069500Y-111397770D01*
X83049815Y-111464809D01*
X83033181Y-111485451D01*
X81005451Y-113513181D01*
X80944128Y-113546666D01*
X80917770Y-113549500D01*
X80350828Y-113549500D01*
X80283789Y-113529815D01*
X80250510Y-113498386D01*
X80200729Y-113429869D01*
X80146379Y-113355063D01*
X79984937Y-113193621D01*
X79897380Y-113130006D01*
X79854717Y-113074679D01*
X79848738Y-113005066D01*
X79881344Y-112943271D01*
X79897383Y-112929373D01*
X79984608Y-112866000D01*
X79984614Y-112865995D01*
X80145995Y-112704614D01*
X80280150Y-112519966D01*
X80383769Y-112316604D01*
X80454295Y-112099544D01*
X80468478Y-112010000D01*
X79173012Y-112010000D01*
X79205925Y-111952993D01*
X79240000Y-111825826D01*
X79240000Y-111694174D01*
X79205925Y-111567007D01*
X79173012Y-111510000D01*
X80468478Y-111510000D01*
X80454295Y-111420455D01*
X80383769Y-111203395D01*
X80280150Y-111000033D01*
X80145995Y-110815385D01*
X79984614Y-110654004D01*
X79897382Y-110590626D01*
X79854717Y-110535296D01*
X79848738Y-110465682D01*
X79881344Y-110403887D01*
X79897374Y-110389997D01*
X79984937Y-110326379D01*
X80146379Y-110164937D01*
X80280579Y-109980228D01*
X80384231Y-109776799D01*
X80454784Y-109559660D01*
X80465097Y-109494548D01*
X80490500Y-109334162D01*
X80490500Y-109105837D01*
X80454784Y-108880339D01*
X80419903Y-108772989D01*
X80384231Y-108663201D01*
X80384229Y-108663198D01*
X80384229Y-108663196D01*
X80317115Y-108531479D01*
X80280579Y-108459772D01*
X80146379Y-108275063D01*
X79984937Y-108113621D01*
X79800228Y-107979421D01*
X79596799Y-107875768D01*
X79576180Y-107869069D01*
X79518505Y-107829631D01*
X79491308Y-107765272D01*
X79490500Y-107751139D01*
X79490500Y-105336079D01*
X79461659Y-105191092D01*
X79461658Y-105191091D01*
X79461658Y-105191087D01*
X79417690Y-105084938D01*
X79405087Y-105054511D01*
X79405080Y-105054498D01*
X79322952Y-104931585D01*
X79281867Y-104890500D01*
X79218416Y-104827049D01*
X79218415Y-104827048D01*
X75081819Y-100690451D01*
X75048334Y-100629128D01*
X75045500Y-100602770D01*
X75045500Y-84182229D01*
X75065185Y-84115190D01*
X75081819Y-84094548D01*
X76074859Y-83101508D01*
X77070132Y-82106234D01*
X77131453Y-82072751D01*
X77201145Y-82077735D01*
X77257078Y-82119607D01*
X77258082Y-82120968D01*
X77333621Y-82224937D01*
X77495063Y-82386379D01*
X77582616Y-82449991D01*
X77625282Y-82505320D01*
X77631261Y-82574933D01*
X77598655Y-82636728D01*
X77582617Y-82650626D01*
X77495386Y-82714003D01*
X77334004Y-82875385D01*
X77199849Y-83060033D01*
X77096230Y-83263395D01*
X77025704Y-83480455D01*
X77011522Y-83570000D01*
X78306988Y-83570000D01*
X78274075Y-83627007D01*
X78240000Y-83754174D01*
X78240000Y-83885826D01*
X78274075Y-84012993D01*
X78306988Y-84070000D01*
X77011522Y-84070000D01*
X77025704Y-84159544D01*
X77096230Y-84376604D01*
X77199849Y-84579966D01*
X77334004Y-84764614D01*
X77495385Y-84925995D01*
X77495391Y-84926000D01*
X77582616Y-84989373D01*
X77625282Y-85044703D01*
X77631261Y-85114316D01*
X77598655Y-85176111D01*
X77582618Y-85190007D01*
X77555329Y-85209834D01*
X77495061Y-85253622D01*
X77333622Y-85415061D01*
X77229490Y-85558386D01*
X77174159Y-85601051D01*
X77129172Y-85609500D01*
X77078580Y-85609500D01*
X76933592Y-85638340D01*
X76933582Y-85638343D01*
X76797011Y-85694912D01*
X76796998Y-85694919D01*
X76674084Y-85777048D01*
X76674080Y-85777051D01*
X75617053Y-86834077D01*
X75617047Y-86834084D01*
X75614154Y-86838416D01*
X75614148Y-86838424D01*
X75534916Y-86957002D01*
X75534914Y-86957006D01*
X75478343Y-87093582D01*
X75478340Y-87093592D01*
X75449500Y-87238579D01*
X75449500Y-87238582D01*
X75449500Y-97863918D01*
X75449500Y-97863920D01*
X75449499Y-97863920D01*
X75478340Y-98008907D01*
X75478343Y-98008917D01*
X75534914Y-98145492D01*
X75553539Y-98173366D01*
X75553540Y-98173369D01*
X75617046Y-98268414D01*
X75617052Y-98268421D01*
X76887049Y-99538416D01*
X76940133Y-99591500D01*
X76991585Y-99642952D01*
X77114498Y-99725080D01*
X77114511Y-99725087D01*
X77161000Y-99744343D01*
X77251087Y-99781658D01*
X77251091Y-99781658D01*
X77251092Y-99781659D01*
X77396079Y-99810500D01*
X77396082Y-99810500D01*
X93617770Y-99810500D01*
X93684809Y-99830185D01*
X93705451Y-99846819D01*
X98581586Y-104722954D01*
X98611058Y-104742645D01*
X98655270Y-104772186D01*
X98704505Y-104805084D01*
X98704506Y-104805084D01*
X98704507Y-104805085D01*
X98704509Y-104805086D01*
X98841082Y-104861656D01*
X98841087Y-104861658D01*
X98841091Y-104861658D01*
X98841092Y-104861659D01*
X98986079Y-104890500D01*
X98986082Y-104890500D01*
X98986083Y-104890500D01*
X99133917Y-104890500D01*
X99989172Y-104890500D01*
X100056211Y-104910185D01*
X100089489Y-104941613D01*
X100193621Y-105084937D01*
X100355063Y-105246379D01*
X100539772Y-105380579D01*
X100635884Y-105429550D01*
X100743196Y-105484229D01*
X100743198Y-105484229D01*
X100743201Y-105484231D01*
X100802308Y-105503436D01*
X100960339Y-105554784D01*
X101185838Y-105590500D01*
X101185843Y-105590500D01*
X102014162Y-105590500D01*
X102239660Y-105554784D01*
X102256873Y-105549191D01*
X102456799Y-105484231D01*
X102660228Y-105380579D01*
X102844937Y-105246379D01*
X103006379Y-105084937D01*
X103140579Y-104900228D01*
X103244231Y-104696799D01*
X103314784Y-104479660D01*
X103325097Y-104414548D01*
X103350500Y-104254162D01*
X103350500Y-104025837D01*
X103314784Y-103800339D01*
X103282049Y-103699592D01*
X103244231Y-103583201D01*
X103244229Y-103583198D01*
X103244229Y-103583196D01*
X103156932Y-103411867D01*
X103140579Y-103379772D01*
X103006379Y-103195063D01*
X102844937Y-103033621D01*
X102757807Y-102970317D01*
X102715143Y-102914988D01*
X102709164Y-102845374D01*
X102741770Y-102783579D01*
X102757807Y-102769683D01*
X102844937Y-102706379D01*
X103006379Y-102544937D01*
X103140579Y-102360228D01*
X103242704Y-102159796D01*
X103244229Y-102156803D01*
X103244229Y-102156802D01*
X103244231Y-102156799D01*
X103314784Y-101939660D01*
X103333908Y-101818917D01*
X103350500Y-101714162D01*
X103350500Y-101485837D01*
X103314784Y-101260339D01*
X103244229Y-101043196D01*
X103187533Y-100931925D01*
X103140579Y-100839772D01*
X103006379Y-100655063D01*
X102844937Y-100493621D01*
X102757807Y-100430317D01*
X102715143Y-100374988D01*
X102709164Y-100305374D01*
X102741770Y-100243579D01*
X102757807Y-100229683D01*
X102844937Y-100166379D01*
X103006379Y-100004937D01*
X103140579Y-99820228D01*
X103244231Y-99616799D01*
X103314784Y-99399660D01*
X103329204Y-99308616D01*
X103350500Y-99174162D01*
X103350500Y-98945837D01*
X103314784Y-98720339D01*
X103244229Y-98503196D01*
X103160230Y-98338340D01*
X103140579Y-98299772D01*
X103006379Y-98115063D01*
X102844937Y-97953621D01*
X102757807Y-97890317D01*
X102715143Y-97834988D01*
X102709164Y-97765374D01*
X102741770Y-97703579D01*
X102757807Y-97689683D01*
X102844937Y-97626379D01*
X103006379Y-97464937D01*
X103140579Y-97280228D01*
X103244231Y-97076799D01*
X103314784Y-96859660D01*
X103350500Y-96634162D01*
X103350500Y-96405837D01*
X103314784Y-96180339D01*
X103256350Y-96000500D01*
X103244231Y-95963201D01*
X103244229Y-95963198D01*
X103244229Y-95963196D01*
X103166723Y-95811083D01*
X103140579Y-95759772D01*
X103006379Y-95575063D01*
X102844937Y-95413621D01*
X102757807Y-95350317D01*
X102715143Y-95294988D01*
X102709164Y-95225374D01*
X102741770Y-95163579D01*
X102757807Y-95149683D01*
X102844937Y-95086379D01*
X103006379Y-94924937D01*
X103140579Y-94740228D01*
X103244231Y-94536799D01*
X103314784Y-94319660D01*
X103350500Y-94094162D01*
X103350500Y-93865837D01*
X103314784Y-93640339D01*
X103244229Y-93423196D01*
X103160230Y-93258340D01*
X103140579Y-93219772D01*
X103006379Y-93035063D01*
X102844937Y-92873621D01*
X102757807Y-92810317D01*
X102715143Y-92754988D01*
X102709164Y-92685374D01*
X102741770Y-92623579D01*
X102757807Y-92609683D01*
X102844937Y-92546379D01*
X103006379Y-92384937D01*
X103140579Y-92200228D01*
X103244231Y-91996799D01*
X103314784Y-91779660D01*
X103350500Y-91554162D01*
X103350500Y-91325837D01*
X103314784Y-91100339D01*
X103282049Y-90999592D01*
X103244231Y-90883201D01*
X103244229Y-90883198D01*
X103244229Y-90883196D01*
X103189056Y-90774913D01*
X103140579Y-90679772D01*
X103006379Y-90495063D01*
X102844937Y-90333621D01*
X102757807Y-90270317D01*
X102715143Y-90214988D01*
X102709164Y-90145374D01*
X102741770Y-90083579D01*
X102757807Y-90069683D01*
X102844937Y-90006379D01*
X103006379Y-89844937D01*
X103140579Y-89660228D01*
X103244231Y-89456799D01*
X103314784Y-89239660D01*
X103350500Y-89014162D01*
X103350500Y-88785837D01*
X103314784Y-88560339D01*
X103253663Y-88372229D01*
X103244231Y-88343201D01*
X103244229Y-88343198D01*
X103244229Y-88343196D01*
X103177970Y-88213157D01*
X103140579Y-88139772D01*
X103006379Y-87955063D01*
X102844937Y-87793621D01*
X102757807Y-87730317D01*
X102715143Y-87674988D01*
X102709164Y-87605374D01*
X102741770Y-87543579D01*
X102757807Y-87529683D01*
X102844937Y-87466379D01*
X103006379Y-87304937D01*
X103140579Y-87120228D01*
X103244231Y-86916799D01*
X103314784Y-86699660D01*
X103324313Y-86639498D01*
X103350500Y-86474162D01*
X103350500Y-86245837D01*
X103314784Y-86020339D01*
X103244229Y-85803196D01*
X103150912Y-85620052D01*
X103140579Y-85599772D01*
X103006379Y-85415063D01*
X102844937Y-85253621D01*
X102757807Y-85190317D01*
X102715143Y-85134988D01*
X102709164Y-85065374D01*
X102741770Y-85003579D01*
X102757807Y-84989683D01*
X102844937Y-84926379D01*
X103006379Y-84764937D01*
X103140579Y-84580228D01*
X103244231Y-84376799D01*
X103314784Y-84159660D01*
X103323420Y-84105136D01*
X103350500Y-83934162D01*
X103350500Y-83705837D01*
X103314784Y-83480339D01*
X103273758Y-83354075D01*
X103244231Y-83263201D01*
X103244229Y-83263198D01*
X103244229Y-83263196D01*
X103165701Y-83109077D01*
X103140579Y-83059772D01*
X103006379Y-82875063D01*
X102844937Y-82713621D01*
X102757807Y-82650317D01*
X102715143Y-82594988D01*
X102709164Y-82525374D01*
X102741770Y-82463579D01*
X102757807Y-82449683D01*
X102844937Y-82386379D01*
X103006379Y-82224937D01*
X103140579Y-82040228D01*
X103244231Y-81836799D01*
X103314784Y-81619660D01*
X103325097Y-81554548D01*
X103350500Y-81394162D01*
X103350500Y-81165837D01*
X103314784Y-80940339D01*
X103256350Y-80760500D01*
X103244231Y-80723201D01*
X103244229Y-80723198D01*
X103244229Y-80723196D01*
X103165701Y-80569077D01*
X103140579Y-80519772D01*
X103006379Y-80335063D01*
X102844937Y-80173621D01*
X102757380Y-80110006D01*
X102714717Y-80054679D01*
X102708738Y-79985066D01*
X102741344Y-79923271D01*
X102757383Y-79909373D01*
X102844608Y-79846000D01*
X102844614Y-79845995D01*
X103005995Y-79684614D01*
X103140150Y-79499966D01*
X103243769Y-79296604D01*
X103314295Y-79079544D01*
X103328478Y-78990000D01*
X102033012Y-78990000D01*
X102065925Y-78932993D01*
X102100000Y-78805826D01*
X102100000Y-78674174D01*
X102065925Y-78547007D01*
X102033012Y-78490000D01*
X103328478Y-78490000D01*
X103314295Y-78400455D01*
X103243769Y-78183395D01*
X103140150Y-77980033D01*
X103005095Y-77794147D01*
X102981615Y-77728341D01*
X102997440Y-77660287D01*
X103047546Y-77611592D01*
X103062081Y-77605079D01*
X103092326Y-77593798D01*
X103092326Y-77593797D01*
X103092331Y-77593796D01*
X103207546Y-77507546D01*
X103293796Y-77392331D01*
X103344091Y-77257483D01*
X103350500Y-77197873D01*
X103350500Y-77074500D01*
X103370185Y-77007461D01*
X103422989Y-76961706D01*
X103474500Y-76950500D01*
X108023920Y-76950500D01*
X108121462Y-76931096D01*
X108168913Y-76921658D01*
X108305495Y-76865084D01*
X108354729Y-76832186D01*
X108428416Y-76782952D01*
X110764548Y-74446818D01*
X110825871Y-74413334D01*
X110852229Y-74410500D01*
X119652770Y-74410500D01*
X119719809Y-74430185D01*
G37*
%TD.AperFunction*%
%TA.AperFunction,Conductor*%
G36*
X173830809Y-101236185D02*
G01*
X173851451Y-101252819D01*
X177013181Y-104414548D01*
X177046666Y-104475871D01*
X177049500Y-104502229D01*
X177049500Y-110149172D01*
X177029815Y-110216211D01*
X176998386Y-110249490D01*
X176855061Y-110353622D01*
X176693622Y-110515061D01*
X176657898Y-110564231D01*
X176630319Y-110602191D01*
X176630009Y-110602617D01*
X176574678Y-110645282D01*
X176505065Y-110651261D01*
X176443270Y-110618655D01*
X176429373Y-110602616D01*
X176366000Y-110515391D01*
X176365995Y-110515385D01*
X176204614Y-110354004D01*
X176019966Y-110219849D01*
X175816602Y-110116229D01*
X175599541Y-110045703D01*
X175510000Y-110031521D01*
X175510000Y-111326988D01*
X175452993Y-111294075D01*
X175325826Y-111260000D01*
X175194174Y-111260000D01*
X175067007Y-111294075D01*
X175010000Y-111326988D01*
X175010000Y-110031521D01*
X175009999Y-110031521D01*
X174920458Y-110045703D01*
X174703397Y-110116229D01*
X174500033Y-110219849D01*
X174315385Y-110354004D01*
X174154003Y-110515386D01*
X174090626Y-110602617D01*
X174035295Y-110645283D01*
X173965682Y-110651261D01*
X173903887Y-110618655D01*
X173889990Y-110602616D01*
X173889681Y-110602191D01*
X173826379Y-110515063D01*
X173664937Y-110353621D01*
X173521613Y-110249489D01*
X173478949Y-110194159D01*
X173470500Y-110149172D01*
X173470500Y-106606079D01*
X173441659Y-106461092D01*
X173441658Y-106461091D01*
X173441658Y-106461087D01*
X173403569Y-106369132D01*
X173385087Y-106324511D01*
X173385080Y-106324498D01*
X173302952Y-106201585D01*
X173261867Y-106160500D01*
X173198416Y-106097049D01*
X173198415Y-106097048D01*
X170658416Y-103557048D01*
X170658415Y-103557047D01*
X170658413Y-103557045D01*
X170609179Y-103524150D01*
X170576355Y-103502218D01*
X170535495Y-103474916D01*
X170535494Y-103474915D01*
X170535492Y-103474914D01*
X170535490Y-103474913D01*
X170398917Y-103418343D01*
X170398907Y-103418340D01*
X170253920Y-103389500D01*
X170253918Y-103389500D01*
X165306230Y-103389500D01*
X165239191Y-103369815D01*
X165193436Y-103317011D01*
X165183492Y-103247853D01*
X165212517Y-103184297D01*
X165218549Y-103177819D01*
X165626686Y-102769682D01*
X166062952Y-102333416D01*
X166070810Y-102321656D01*
X166104249Y-102271610D01*
X166157860Y-102226804D01*
X166207352Y-102216499D01*
X166477871Y-102216499D01*
X166477872Y-102216499D01*
X166537483Y-102210091D01*
X166672331Y-102159796D01*
X166787546Y-102073546D01*
X166873796Y-101958331D01*
X166924091Y-101823483D01*
X166930500Y-101763873D01*
X166930500Y-101340500D01*
X166950185Y-101273461D01*
X167002989Y-101227706D01*
X167054500Y-101216500D01*
X173763770Y-101216500D01*
X173830809Y-101236185D01*
G37*
%TD.AperFunction*%
%TA.AperFunction,Conductor*%
G36*
X80984809Y-82050185D02*
G01*
X81005451Y-82066819D01*
X83603181Y-84664548D01*
X83636666Y-84725871D01*
X83639500Y-84752229D01*
X83639500Y-89898770D01*
X83619815Y-89965809D01*
X83567011Y-90011564D01*
X83497853Y-90021508D01*
X83434297Y-89992483D01*
X83427819Y-89986451D01*
X81758413Y-88317045D01*
X81709179Y-88284150D01*
X81676355Y-88262218D01*
X81635495Y-88234916D01*
X81635494Y-88234915D01*
X81635492Y-88234914D01*
X81635490Y-88234913D01*
X81498917Y-88178343D01*
X81498907Y-88178340D01*
X81353920Y-88149500D01*
X81353918Y-88149500D01*
X80350828Y-88149500D01*
X80283789Y-88129815D01*
X80250510Y-88098386D01*
X80212512Y-88046087D01*
X80146379Y-87955063D01*
X79984937Y-87793621D01*
X79897807Y-87730317D01*
X79855143Y-87674988D01*
X79849164Y-87605374D01*
X79881770Y-87543579D01*
X79897807Y-87529683D01*
X79984937Y-87466379D01*
X80146379Y-87304937D01*
X80280579Y-87120228D01*
X80384231Y-86916799D01*
X80454784Y-86699660D01*
X80464313Y-86639498D01*
X80490500Y-86474162D01*
X80490500Y-86245837D01*
X80454784Y-86020339D01*
X80384229Y-85803196D01*
X80290912Y-85620052D01*
X80280579Y-85599772D01*
X80146379Y-85415063D01*
X79984937Y-85253621D01*
X79897380Y-85190006D01*
X79854717Y-85134679D01*
X79848738Y-85065066D01*
X79881344Y-85003271D01*
X79897383Y-84989373D01*
X79984608Y-84926000D01*
X79984614Y-84925995D01*
X80145995Y-84764614D01*
X80280150Y-84579966D01*
X80383769Y-84376604D01*
X80454295Y-84159544D01*
X80468478Y-84070000D01*
X79173012Y-84070000D01*
X79205925Y-84012993D01*
X79240000Y-83885826D01*
X79240000Y-83754174D01*
X79205925Y-83627007D01*
X79173012Y-83570000D01*
X80468478Y-83570000D01*
X80454295Y-83480455D01*
X80383769Y-83263395D01*
X80280150Y-83060033D01*
X80145995Y-82875385D01*
X79984614Y-82714004D01*
X79897382Y-82650626D01*
X79854717Y-82595296D01*
X79848738Y-82525682D01*
X79881344Y-82463887D01*
X79897374Y-82449997D01*
X79984937Y-82386379D01*
X80146379Y-82224937D01*
X80250510Y-82081613D01*
X80305841Y-82038949D01*
X80350828Y-82030500D01*
X80917770Y-82030500D01*
X80984809Y-82050185D01*
G37*
%TD.AperFunction*%
%TA.AperFunction,Conductor*%
G36*
X92573559Y-52840185D02*
G01*
X92594201Y-52856819D01*
X93193181Y-53455799D01*
X93226666Y-53517122D01*
X93229500Y-53543480D01*
X93229500Y-54269172D01*
X93209815Y-54336211D01*
X93178386Y-54369490D01*
X93035061Y-54473622D01*
X92873622Y-54635061D01*
X92829834Y-54695329D01*
X92810319Y-54722191D01*
X92810009Y-54722617D01*
X92754678Y-54765282D01*
X92685065Y-54771261D01*
X92623270Y-54738655D01*
X92609373Y-54722616D01*
X92546000Y-54635391D01*
X92545995Y-54635385D01*
X92384614Y-54474004D01*
X92199966Y-54339849D01*
X91996602Y-54236229D01*
X91779541Y-54165703D01*
X91690000Y-54151521D01*
X91690000Y-55446988D01*
X91632993Y-55414075D01*
X91505826Y-55380000D01*
X91374174Y-55380000D01*
X91247007Y-55414075D01*
X91190000Y-55446988D01*
X91190000Y-54151521D01*
X91189999Y-54151521D01*
X91100458Y-54165703D01*
X90883397Y-54236229D01*
X90680033Y-54339849D01*
X90495385Y-54474004D01*
X90334003Y-54635386D01*
X90270626Y-54722617D01*
X90215295Y-54765283D01*
X90145682Y-54771261D01*
X90083887Y-54738655D01*
X90069990Y-54722616D01*
X90069681Y-54722191D01*
X90006379Y-54635063D01*
X89844937Y-54473621D01*
X89701613Y-54369489D01*
X89658949Y-54314159D01*
X89650500Y-54269172D01*
X89650500Y-53901081D01*
X89650499Y-53901080D01*
X89639610Y-53846334D01*
X89621659Y-53756088D01*
X89567408Y-53625117D01*
X89565764Y-53620522D01*
X89482954Y-53496588D01*
X89482953Y-53496587D01*
X89482951Y-53496584D01*
X89378416Y-53392049D01*
X89018549Y-53032181D01*
X88985064Y-52970858D01*
X88990048Y-52901166D01*
X89031920Y-52845233D01*
X89097384Y-52820816D01*
X89106230Y-52820500D01*
X92506520Y-52820500D01*
X92573559Y-52840185D01*
G37*
%TD.AperFunction*%
%TD*%
M02*
