M48
; DRILL file {KiCad 8.0.7} date 2025-01-15T15:06:33+0100
; FORMAT={-:-/ absolute / inch / decimal}
; #@! TF.CreationDate,2025-01-15T15:06:33+01:00
; #@! TF.GenerationSoftware,Kicad,Pcbnew,8.0.7
; #@! TF.FileFunction,MixedPlating,1,2
FMAT,2
INCH
; #@! TA.AperFunction,Plated,PTH,ViaDrill
T1C0.0236
; #@! TA.AperFunction,Plated,PTH,ComponentDrill
T2C0.0394
%
G90
G05
T1
X4.425Y-2.675
X4.425Y-3.125
X4.775Y-4.1
X4.775Y-4.575
X6.875Y-3.75
X6.875Y-4.125
T2
X3.1Y-3.2
X3.1Y-3.3
X3.1Y-3.4
X3.1Y-3.5
X3.1Y-3.6
X3.1Y-4.3
X3.1Y-4.4
X3.1Y-4.5
X3.1Y-4.6
X3.1Y-4.7
X3.2988Y-2.701
X3.3Y-2.2
X3.3988Y-2.701
X3.4Y-2.2
X3.4988Y-2.701
X3.5Y-2.2
X3.5988Y-2.701
X3.6Y-2.2
X3.6Y-4.3
X3.6Y-4.4
X3.6Y-4.5
X3.6Y-4.6
X3.6Y-4.7
X3.601Y-3.2
X3.601Y-3.3
X3.601Y-3.4
X3.601Y-3.5
X3.601Y-3.6
X3.6988Y-2.701
X3.7Y-2.2
X4.0Y-3.0
X4.0Y-3.1
X4.0Y-3.2
X4.0Y-3.3
X4.0Y-3.4
X4.0Y-3.5
X4.0Y-3.6
X4.0Y-3.7
X4.0Y-3.8
X4.0Y-3.9
X4.0Y-4.0
X4.0Y-4.1
X4.2Y-4.4
X4.2Y-4.9
X4.2016Y-2.5
X4.3Y-2.5
X4.3Y-4.4
X4.3Y-4.9
X4.4Y-4.4
X4.4Y-4.9
X4.5Y-4.4
X4.5Y-4.9
X4.6Y-3.0
X4.6Y-3.1
X4.6Y-3.2
X4.6Y-3.3
X4.6Y-3.4
X4.6Y-3.5
X4.6Y-3.6
X4.6Y-3.7
X4.6Y-3.8
X4.6Y-3.9
X4.6Y-4.0
X4.6Y-4.1
X4.6Y-4.4
X4.6Y-4.9
X4.7Y-2.5
X4.7984Y-2.5
X5.2Y-2.5
X5.215Y-3.09
X5.215Y-3.9554
X5.2984Y-2.5
X5.315Y-3.09
X5.315Y-3.9554
X5.4Y-4.4
X5.4Y-4.9
X5.415Y-3.09
X5.415Y-3.9554
X5.5Y-4.4
X5.5Y-4.9
X5.515Y-3.09
X5.515Y-3.9554
X5.6Y-4.4
X5.6Y-4.9
X5.615Y-3.09
X5.615Y-3.9554
X5.7Y-2.5
X5.7Y-4.4
X5.7Y-4.9
X5.715Y-3.09
X5.715Y-3.9554
X5.7984Y-2.5
X5.8Y-4.4
X5.8Y-4.9
X5.815Y-3.09
X5.815Y-3.9554
X5.915Y-3.09
X5.915Y-3.9554
X6.015Y-3.09
X6.015Y-3.9554
X6.115Y-3.09
X6.115Y-3.9554
X6.2016Y-2.5
X6.215Y-3.09
X6.215Y-3.9554
X6.3Y-2.5
X6.315Y-3.09
X6.315Y-3.9554
X6.415Y-3.09
X6.415Y-3.9554
X6.515Y-3.09
X6.515Y-3.9554
X6.6Y-4.4
X6.6Y-4.9
X6.7Y-4.4
X6.7Y-4.9
X6.7016Y-2.5
X6.8Y-2.5
X6.8Y-4.4
X6.8Y-4.9
X6.9Y-4.4
X6.9Y-4.9
X7.0Y-4.4
X7.0Y-4.9
M30
